<?xml version="1.0" encoding="UTF-8"?><svg xmlns="http://www.w3.org/2000/svg" viewBox="0 0 1920 1080"><defs><style>.cls-1{fill:#904f9c;}.cls-2{fill:#1e0442;}.cls-3{fill:#fcf7df;}.cls-4{fill:#f9848c;}.cls-5{fill:#4b2068;}.cls-6{fill:#1b0140;}.cls-7{fill:#e54976;}.cls-8{fill:#c03666;}.cls-9{fill:#6b338c;}.cls-10{fill:#88c0af;}.cls-11{fill:#9e6ebb;}.cls-12{fill:#4d3670;}.cls-13{fill:#7d4399;}.cls-14{fill:#7bb9a7;}.cls-15{fill:#3e2261;}.cls-16{fill:#e3d8d1;}.cls-17{fill:#311355;}.cls-18{fill:#884c99;}.cls-19{fill:#07032a;}.cls-20{fill:#fbf6de;}.cls-21{fill:#75458c;}.cls-22{fill:#18013b;}.cls-23{fill:#f5b499;}.cls-24{fill:#17092e;}.cls-25{fill:#8d4e9c;}.cls-26{fill:#1b0141;}</style></defs><g id="BACKGROUND"><rect class="cls-6" x="-91.5" y="-46.5" width="2051" height="1150"/><rect class="cls-6" x="-102" y="951" width="2077" height="165"/></g><g id="Layer_1"><path class="cls-13" d="M1632.64-108V64.97c-1.75-.1-3.57-.05-5.32,0V-108h5.32Z"/><path class="cls-21" d="M331.36-108V64.97c-1.75-.07-3.57-.07-5.32,0V-108h5.32Z"/><path class="cls-14" d="M145.08,440.19c2.75,36.41,31.92,79.35,31.93,101.12,0,5.23-4.09,11.6-2.66,18.63.3,1.46,2.03,1.94,2.66,2.66,1.69,1.96,4.73,2.08,5.32,2.66.29.28-.72,3.71,1.8,5.41,14.45,7.64,56.41,19.8,66.68,29.9,3.31,3.25,10.67,20.54,11.36,25.89,2.42,18.75-1.8,41.9.03,61.2,4.84-1.01,4.95-5.23,5.39-9.22,1.81-16.18-1.51-35.42-.1-51.99,7.33,0,27.25-1.58,31.97,1.3,5.85,9.86,10.82,20.42,15.93,30.64.89,1.77,1.82,3.53,2.66,5.32,6.29,13.37,8.63,25.64,13.31,37.26-4.41,13.49-26.96,36.54-39.92,39.92-2.33.61-7.63.05-10.64,0-3.49-.06-7.04.52-10.48-.23l-.18-7.77c-12.74,11.86-29.15,7.54-45.22,8-3.54.1-7.1-.06-10.64,0s-7.1-.01-10.64,0c-49.51.17-84.39,4.23-119.75-37.26-28.3-33.21-43.54-99.89-50.2-142.73-2.36-15.18-8.21-46.71-3.02-59.51.87,5.09,5.97,4.03,7.98,5.32,4.61,2.96,7.43,6.47,13.36,9.27,36.68,17.28,79.65,29.85,117.01,46.6,1.35-7.07-1.49-4.63-5.32-6.5-24.5-11.97-51.38-21.17-76.77-31.13-.7-12.99-4.87-26.78-5.71-39.53-.43-6.51-.93-17.94,0-23.95,3.04-19.59,47.88-22.59,63.87-21.29Z"/><path class="cls-7" d="M1912.05,517.36c.19,4.42-.06,8.88,0,13.31l-2.61,1.33,2.61,1.33c-.08,3.54.15,7.11,0,10.64-3.37,3.15-5,8.9-5.32,13.31-.18,2.48-.23,5.52,0,7.98-.6,3.56-2.24,7.07-2.66,10.64-.3,2.59.14,5.36,0,7.98l-2.61,1.33,2.61,1.33c-.2,2.61.34,5.46,0,7.98-7.01,6.96-7.82,19.72-7.98,29.27-.4,1.17-1.84,2.88-2.66,5.32-3.39,10.12-6.84,22.38-10.64,31.93-4.93,12.38-12.93,29.84-21.29,39.92-18.82,22.68-50.93,37.42-79.83,39.92-3.5.3-7.12-.15-10.64,0s-7.1-.1-10.64,0c-15.85.45-32.03.21-47.9,0-.89-.01-1.77.01-2.66,0-3.55-.05-7.1.07-10.64,0-5.31-.11-10.66.22-15.97,0-3.52-.15-7.14.28-10.64,0h-2.66c-1.73-.17-3.68.28-5.32,0-5.13-3.72-7.34-4.85-8.17-11.8-2.39-20-1.95-89.81,2.84-107.95,14.12-25.67,42.13-29.63,67.23-40.68,3.99-1.76,8.71-.39,7.28-7.22.8-.27,1.86.27,2.66,0,52.58-17.58,105.15-36.88,156.96-57.25,5.97-2.35,12-5.7,17.36-9.25,2.65,1.61,1.18,7.54,1.31,10.63Z"/><path class="cls-18" d="M1845.52,796.77c21.12.5,39.31-5.67,41.99,23.22,3.02,32.64-36.95,63.24-64.47,72.72-3.5,1.2-27.89,7.85-29.41,7.85h-246.15v85.15c-1.76-.09-3.56-.03-5.32,0v-5.32c0-3.55,0-7.1,0-10.64,0-23.03,0-46.17.01-69.2-48.74-.48-97.64.69-146.37.01-14.08-.2-28.55.82-42.58,0-6.19-.36-15.83-5.13-23.95-2.66v-2.66c19.51-5.84,52.96-7.14,75-11.48,26.17-5.16,68.03-18.8,91.71-20.28,6.19-.38,10.99,2.29,16.9,2.49l2.64-1.37c-.07-2.18.29-4.46.02-6.62,19.16-5.15,41.77-21.67,61.21-21.29,13.58.27,26.04,7.3,39.37,9.86,59.24,11.36,131.04,13.89,190.13.11,51.3-11.96,22.91-28.16-8.64-39.24-.7-3.58-1.9-7.07-2.66-10.64h2.66c15.92.27,31.98-.38,47.9,0Z"/><path class="cls-18" d="M81.22,823.17c-3.72,5.44-7.48,11.9-1.33,17.15,5.3,4.53,67.94,11.34,79.86,12.24,49.96,3.78,109.8,2.12,158.91-8.01,9.11-1.88,22.72-4.54,28.68-11.58,56.43,22.14,127.77,35.82,188.38,45.87,27.55,4.57,56.26,5.9,83.05,12.97-2.55-.3-5.37.12-7.98,0-21.03-.96-48.5,2.23-71.85,2.45-36.32.35-72.78-.2-109.1,0-22.31.13-52.26-2.4-73.32-.12-3.87.42-6.84.3-9.18,3.8v77.24c12.63.24,21.94-2.8,26.61,9.81-18.53-.9-37.87,2.33-55.88-2.45,1.17-1.63-.55-4.35,4.36-6.93,5.22-2.75,13.59-2.93,19.59-2.88v-78.46h-184.95c-5.18,0-33.96-9.04-40.41-11.81-23.9-10.27-51.79-36.54-48.74-61.75,4.3-.56,9.76,2.52,13.31,2.45Z"/><path class="cls-10" d="M86.54,299.15c-18.07,3.41-72.59-23.17-76.8-39.18-1.44-5.47,2.62-11.66,2.38-17.89-.32-8.45-5.25-17.9-5.12-26.47.16-10.54,19.67-60.71,29.8-59.72,3.81.37,21.13,9.07,25.56,11.77,20.76,12.61,32.76,28.92,29.51,54.32,5.95,7.53,10.4-25.53,20.89-11.57,15.64,20.82,11.88,79-18.14,88.99l18.56,50.32,5.17-28.05,13.43-19.83,39.89-21.29c3.04,14.4,3.11,23.01.03,37.25-1.92,8.88-8.82,27.2-13.31,34.59-9.2,15.17-15.21,19.68-31.93,23.95-1.7.43-3.54,2.02-5.32,2.66-1.41-3.1-10.18-17.7-12.2-18.18-39.42,14.21-78.65-2.69-96.91-38.97,28.06-11.83,62.72-10.1,87.8,9.26,1.76-2.22-8.71-24.62-10.62-29.27,4.91-2.2,1.39-8.68.13-12.08-7.87-21.27-19.22-43.42-29.39-63.78-5.14-3.66-1.97,4.77-1.33,6.67,7.4,22.01,19.04,45.27,27.93,66.54ZM57.24,221.97c.71-4.96.02-9.22-5.27-10.64-.71,4.96-.02,9.22,5.27,10.64Z"/><path class="cls-12" d="M1603.36,168.75c3.26,20.04,21.02,13.45,35.7,18.64l14.86-18.64h71.85c19.26,22.88,37.26,46.14,55.88,69.19-14.91,6.79-29.92.13-43.91-.24-82.83-2.18-166.64-2.56-250.13.36-5.01.18-10.89,2.22-9.32-5.44,17.53-21.72,35.32-42.58,53.22-63.87h71.85Z"/><path class="cls-17" d="M469.74,264.55c-5.73,2.88-9.17,7.67-12.11,13.18-3.95,7.4-9.73,26.23-11.84,34.72-45.68.32-91.45-.39-137.16-.11-23.74.14-49.35,2.44-73.07,2.77-9.68.13-20.44-4.54-33.11-2.5-9.37,1.51-25.18,17.12-30.76,5.16,3.08-14.24,3.02-22.85-.03-37.25l-39.89,21.29c-7.63,1.17-6.25-2.87-3.91-7.89,5.8-12.42,17.67-22.4,25.19-32.02,2.76,4.45,7.21,5.01,11.92,5.38,86.29,6.87,181.89-1.85,268.95-.19,17.65.34,19.09,4.25,35.8-2.54Z"/><path class="cls-15" d="M1478.29,232.62c-1.58,7.67,4.31,5.62,9.32,5.44,83.49-2.92,167.3-2.54,250.13-.36,13.99.37,29.01,7.03,43.91.24,7.28,9.01,17.24,16.44,26.61,29.27-12.88,8.76-31.35,8.85-46.85,10.4-34.65,3.46-73.1,2.89-108.73,3.03-39.88.17-70.23-1.55-109.07-5.59-17.47-1.82-34.71,2.89-52.03,2.81-2-10.76-19.07-21.07-23.95-37.26,4.01,1.12,7.91-4.6,10.64-7.98Z"/><path class="cls-12" d="M272.82,168.75l1.33,2.61,1.33-2.61c9.73-.19,19.54.09,29.27,0,2.46,22.97,45.11,20.81,50.56,0,19.16.18,49.24-2.8,66.53,0,.29.05,4.18,2.08,5.32,2.66,7.58,3.84,27.8,30.23,34.54,38.63,4.48,5.6,10.09,13.5,13.36,19.91-25.35-10.35-41.22-5.07-65.08-5.22-66.83-.43-133.78-3.55-199.71.44-8.77.53-20.41,7.83-27.94,2.12,8.08-9.66,16.22-24.38,25.25-34.63,6.31-7.16,15.14-17.93,22.65-21.26,1.49-.66,5.03-2.62,5.32-2.66,10.8-1.49,25.67.27,37.26,0Z"/><path class="cls-3" d="M1627.31,64.97c1.75-.05,3.57-.1,5.32,0,37.06,2.06,21.27,11.37,32.26,32.94,4.76,9.34,49.7,57.56,60.88,70.84h-194.26c8.12-9.66,60.67-70.05,62.45-74.6,2.72-6.94-.18-12.98,3.89-20.06,5.92-10.28,19.65-8.86,29.46-9.13Z"/><path class="cls-3" d="M326.04,64.97c1.75-.07,3.57-.07,5.32,0,8.37.33,18.94-1.9,25.19,5.41s2.14,16.38,5.44,23.83c5.98,13.47,49.71,54.15,62.51,71.88l-2.66,2.66c-17.29-2.8-47.37.18-66.53,0-16.81-.16-33.75-.15-50.56,0-9.73.09-19.54-.19-29.27,0-.89.02-1.77-.02-2.66,0-11.59.27-26.45-1.49-37.26,0l-2.66-2.66c11.42-16.65,55.25-58.8,59.84-69.22,3.62-8.22-1.3-16.47,6.63-25.3,7.69-8.56,16.67-6.2,26.67-6.59Z"/><path class="cls-4" d="M1834.88,442.85c.9.14,3.3,2.86,5.32,2.66l13.31,2.66c4.78,9.88,9.36,9.67,10.64,23.95.05.58-5.03,6.33,0,10.64l-7.98,39.92c-31.87,11.56-63.78,27.54-95.8,37.26-1.06-15.5,1.47-32.66,0-47.9-.12-1.21-1.41-2.38-2.66-2.66,4.24-14.39,10.03-60.36,7.98-74.51,23.26-.67,46.19,4.38,69.19,7.98Z"/><path class="cls-5" d="M475.06,229.96c7.34,3,16.69,16.01,18.63,23.95-3.61,1.13-8.25,1.77-10.64,2.66-17.97-20.28-59.08-8.18-83.7-7.86-72.64.95-145.73.68-218.37-.08-4.5-.05-11.84,1.7-14.6-2.71,5.71-7.18,10.66-12.28,15.97-18.63,7.52,5.71,19.16-1.59,27.94-2.12,65.93-3.99,132.88-.87,199.71-.44,23.85.15,39.73-5.12,65.08,5.22Z"/><path class="cls-10" d="M1837.54,299.15c7.31,6.52,13.33-6.16,20.11-.28,10.56,9.16-3.3,21.22-1.46,32.2l11.93-18.6c10.15,10.79,9.56,16.6,4.02,29.25l10.61-2.64c2.41,31.9-5.7,66.75-42.56,71.84-1.4.19-4.07.27-5.32,0-10.35-2.24-31.78-16.2-35.78-26.76-2.24-5.91-8.13-42.31-.15-42.39l6.6,3.98c-5.12-6.9-9.5-14.07-5.27-22.65.68-.34,1.65-4.71,3.88-4.82l8.12,4.77c-5.73-15.17-6.56-17.68,9.28-21.23,1.89-.43,9.13.18,13.31-2.66-.26,19.59,1.22,40.5-.03,59.85-.53,8.27-1.29,27.68-7.95,29.29,7.44,4.07,9.55,5.33,8,14.65l26.53-30.63-21.21,14.66c-.45-29.34-2.3-58.44-2.69-87.82ZM1864.16,349.68h3.94s3.98-3.99,3.98-3.99l-7.92,1.38v2.61ZM1822.9,384.3v2.66c1.73-.89,1.73-1.77,0-2.66Z"/><path class="cls-15" d="M483.04,256.57c-4.04,1.51-9.15,6.3-13.31,7.98-16.7,6.78-18.15,2.87-35.8,2.54-87.06-1.66-182.66,7.06-268.95.19-4.71-.37-9.16-.93-11.92-5.38,4.6-5.88,9.29-10.92,13.31-15.97,2.76,4.41,10.1,2.66,14.6,2.71,72.65.76,145.73,1.03,218.37.08,24.62-.32,65.73-12.43,83.7,7.86Z"/><path class="cls-10" d="M121.14,413.57c6.24,3.37,12.49,14.39,21.29,7.98h2.66c-2.26,6-.47,12.47,0,18.63-15.99-1.3-60.83,1.69-63.87,21.29-28.79-6.89-50.76-34.79-61.21-61.18,34.15-6.08,70.89-3.04,101.12,13.28Z"/><path class="cls-19" d="M1845.52,796.77c-15.92-.38-31.98.27-47.9,0l-2.66-2.66c-3.83-17.71-9.59-35.44-13.31-53.22,28.91-2.49,61.01-17.23,79.83-39.92,6.29,31.93-17.3,62.87-15.97,95.8Z"/><path class="cls-20" d="M203.63,740.89c-.69,12.21-12.97,32.54-23.95,37.26-8.49,3.64-17.75,2.32-26.61,2.66l-1.33-2.61-1.33,2.61c-1.77.02-3.56.06-5.32,0-2.95-.09-10.08.06-10.64,0-3.83-.43-10.13-.93-13.31-2.66-.63-.35-1.8-3.99-3.88-5.43-2.4-1.67-6.33-2.15-6.77-2.55-15.52-14.36-26.77-45.67-26.61-66.53,35.35,41.49,70.24,37.43,119.75,37.26Z"/><path class="cls-15" d="M1864.15,482.76c14.51,2.22,34.14,3.98,46.14,13.17,2.73,2.09,1.3,4.76,1.75,5.46-16.76,11.89-37.28,14.54-55.88,21.29l7.98-39.92Z"/><path class="cls-21" d="M115.81,794.11c2.04.17,8.39,5.19,13.31,2.66-1.4,4.19-4.5,12.7-5.32,15.97-13.07.3-30.54,10.38-42.58,10.64-3.54.08-9-3.27-13.31-2.66,1.01-9.07,1.91-22.14,13.31-23.95,9.12-1.45,25.76-3.41,34.59-2.66Z"/><path class="cls-12" d="M78.56,485.42l2.65,34.58-42.56-13.29c-2.02-1.29-7.11-.23-7.98-5.32,6.84-16.89,32.04-16.01,47.9-15.97Z"/><path class="cls-17" d="M1912.05,501.39c2.94,4.56,8.09,5.85,5.31,15.98l-5.31-.02c-.13-3.08,1.34-9.01-1.31-10.63-5.35,3.56-11.38,6.91-17.36,9.25-51.81,20.38-104.38,39.68-156.96,57.25l7.98-7.98c7.63.07,10.43-3.64,15.97-5.32,32.02-9.72,63.93-25.69,95.8-37.26,18.6-6.75,39.12-9.39,55.88-21.29Z"/><path class="cls-25" d="M1853.51,448.17c24.68-1.5,48.45,6.86,71.83,13.34.67,3.62-4.76,4.04-7.32,4.58-17.32,3.67-36.34,2.78-53.87,6.03-1.29-14.28-5.87-14.07-10.64-23.95Z"/><path class="cls-15" d="M81.22,485.42c.84,12.75,5.02,26.54,5.71,39.53,25.39,9.96,52.26,19.16,76.77,31.13,3.83,1.87,6.67-.57,5.32,6.5-37.37-16.75-80.33-29.32-117.01-46.6-5.94-2.8-8.75-6.31-13.36-9.27l42.56,13.29-2.65-34.58h2.66Z"/><path class="cls-15" d="M110.49,770.16c.43.4,4.36.88,6.77,2.55,2.08,1.44,3.24,5.09,3.88,5.43l-5.32,15.97c-8.83-.75-25.47,1.21-34.59,2.66,1.6-11.91,17.48-24.61,29.27-26.61Z"/><path class="cls-16" d="M1837.54,299.15c.39,29.37,2.23,58.48,2.69,87.82l21.21-14.66-26.53,30.63c1.55-9.32-.57-10.58-8-14.65,6.66-1.61,7.42-21.02,7.95-29.29,1.24-19.34-.24-40.26.03-59.85.09-6.79-1.23-15.13,1.33-21.32,2.4,0,1.28,17.6,1.33,21.32Z"/><path class="cls-16" d="M89.2,301.81c-.39-.94-2.3-1.79-2.66-2.66-8.89-21.27-20.53-44.53-27.93-66.54-.64-1.9-3.81-10.33,1.33-6.67,10.16,20.36,21.52,42.51,29.39,63.78,1.26,3.41,4.78,9.89-.13,12.08Z"/><path class="cls-14" d="M139.76,405.59c1.27,3.49.07,11.57,2.66,15.97-8.79,6.41-15.05-4.62-21.29-7.98l13.25,4.02c-5.92-10.92-8.42-28.03-13.25-38.62,1.78-.64,3.62-2.23,5.32-2.66-.33,10.91,10.5,21.56,13.31,29.27Z"/><path class="cls-21" d="M1840.2,410.91v34.59c-2.02.2-4.42-2.52-5.32-2.66v-31.93c1.25.27,3.93.19,5.32,0Z"/><path class="cls-17" d="M1893.42,629.12c3.65,5.74-2.53,17.32-4.52,23.55-1.28,4.01,1.12,9.44-6.13,8.38,3.8-9.55,7.25-21.81,10.64-31.93Z"/><path class="cls-17" d="M1896.08,623.8c.17-9.55.98-22.31,7.98-29.27-1.78,13.28-4,17.63-7.98,29.27Z"/><path class="cls-17" d="M1912.05,543.97c-.19,4.43.2,8.9,0,13.33l-5.32-.02c.32-4.4,1.95-10.16,5.32-13.31Z"/><path class="cls-17" d="M1906.73,565.26c.13,1.42,4.87,6.23,2.65,10.63h-5.31c.42-3.56,2.06-7.07,2.66-10.63Z"/><path class="cls-10" d="M235.56,168.75c-.29.04-3.83,2-5.32,2.66-.18-2.55,1.54-3.68,2.66-5.32l2.66,2.66Z"/><path class="cls-17" d="M1904.07,586.55l-2.61-1.33,2.61-1.33c-.05.88.07,1.78,0,2.66Z"/><path class="cls-17" d="M1912.05,533.32l-2.61-1.33,2.61-1.33c.01.89.02,1.78,0,2.66Z"/><path class="cls-3" d="M1153.64,213.99c44.13,7.37,55.16,26.56,64.76,66.97,6.67,28.05,13.27,61.91,7.1,90.02,10.58,1.42,21.33,1.74,31.93,2.68,7.04.62,6.43.7,13.31,0,3.49,25.31-14.08,60.27,24.07,59.77l-.12,12.08c-5.73,1.33-13.4,6.85-13.31,13.31-48.89,3.55-45.8,64.19-71.85,95.8-2.21-6.02-5.56-6.29-10.64-7.98l-15.97-42.58h-90.48l21.31,63.88c4.42-2.16,12.6-1.47,15.95-2.68-1.72,14.36,22.18,15.72,31.93,15.97,1.56,12.82,15.17,14.5,23.95,18.63-16.8,8.5-36.61,4.33-54.66,5.21-121.24,5.94-243.32,7.16-364.43.08-31.37-1.83-63.06-6.43-94.5-7.96-1.41-10.79-2.38-17.75-2.66-29.27l21.29,2.66c2.56,5.11,17.28,19.95,22.95,20.58,18.38-7.09,51.63-5.62,68.24-12.7,3.04-1.3,1.71-5.07,1.95-5.22,3.52-2.18,20.66,3.46,25.3-2.64l25.26-55.88-80.65-2.17c-6.03,1.81-20.1,29.76-20.47,36.74-5.79,3.02-17.35,6.32-15.97-2.66-2.18-11.26-8.01-23.31-12.84-33.73-8-17.28-17.91-48.02-40.39-46.1-.91-13.66-4.64-25.5-5.32-39.92l16.91-.37,4.01-3.99.55-20.8-8.11-1.49c.78-8.63,2.38-18.01-.05-26.57l58.53-2.68c-.33-4.58-2.77-8.57-2.65-13.29l2.66-2.66c0-2.65-.09-5.33,0-7.98,6.21-5.21,7.85-7.01,15.97-7.98-10.33,10.16-12.54,17.04-10.62,31.92,4.74-.26,2.21-8.87,3.82-13.44,2.61-7.42,8.83-11.39,16.28-13.02,6.35-1.39,8.36-.82,3.83,5.18-4.24.06-12.2-1.27-14.81,2.49l-1.27,17.06c.91,3.74,17.6,5.23,22.31,7.61,3.03,1.53,3.65,4.27,4.42,4.78-5.11-.78-22.98-6.07-23.94-5.31-4.77,3.79,3.61,5.89,4.99,6.88,4.17,2.95,25.06,16.03,28.31,17.02,5.66,1.73,4.8-5.49,3.55-8.88-1.03-2.8-9.47-7.43-12.91-9.71,4.42.67,8.95-.23,13.28,2.68l2.69-26.63,11.95-61.23,19.99-2.64c-2.94-23.21-8.11-45.86-10.65-69.18,10.43.51,19.02,4.92,29.27,0,2.02,22.07-1.48,46.81-.01,69.2,19.49-.06,39.07.03,58.56-.01,10.62-.03,21.31.02,31.93,0h2.66l-8,69.2h90.49c1.64,6.55,11.71,41.1,15,42.2,39.06-2.96,87.04,5.18,124.98.52,4.11-.51,4.97-2.35,6.38-2.81,9.67-3.21,29.33-16.39,34.62-25.25-10.61-2.8-26,5.57-34.62,11.95-.48-2.28-3.28-6.03-4.12-10.43-4.23-22.14-7.18-44.6-11.98-66.62-3.46-.62-7.02.1-10.51-.12-.88-7.75,2.35-14.91,2.77-22.52.6-10.82-2.42-48.95,1.24-54.63,1.57-2.43,5.35-4.63,9.3-10.67,2.36-3.62,5.2-7.31,7.98-10.64ZM1182.91,337.73c-2.77-8.65,0-58.06,0-71.85,0-2.33,7.69-7.9-2.65-6.66-3.32,25.81-4.4,52.13-.27,78.05l-13.07,8.45,26.64,1.3c-.5-4.51-9.74-6.48-10.64-9.29ZM988.65,488.08c11.45-8.8,34.33-19.71,21.27-35.84,9.43-2.78,15.8-19.99,2.49-16.29-7.99,2.22-12.09,14.57-21.09,14.86-1.76-1.86,18.71-30.23,12.88-48.81-4.49-14.31-18.59,9.96-23.51,11.57l-9.36-26.66-8.02,2.65-1.3,16.02-7.94-2.65,2.62,29.25c-4.58-2.03-4.31-6.88-10.73-9.09-3.56-1.22-6.71-2.22-10.52-1.52-2.77,11.5,5.37,16.98,7.96,26.58l-10.65.02c-1.15,22.35,17.2,28.65,31.95,39.91-8.28.18-16.63-.61-24.91.37-5.29,1.72-3.92,6.18-4.36,10.27-2.42,22.72,7.37,49.56,19.17,68.63l44.28.13c14.12-23.89,15.59-41.89,16.39-68.75.03-.87,7.07-7.35-1.75-10.22-5.66-1.85-17.86-.26-24.86-.42Z"/><path class="cls-14" d="M517.64,248.59c.57,10.71,2.56,17.46,14.54,18.8,16.45,1.84,18.73-1.92,20.06-16.14,53.83,4.71,51.26,61.29,63.87,101.12-5.79,2.09-19.51,27.79-21.29,34.59-1.53-.48-4.27-2.77-5.32-2.66,1.37-6.71-3.75-11.43-5.32-15.97-6.2-17.85-4.96-34.65-6.65-53.25-.6,17.65-3.41,35.66-3.99,53.25-.2,6.19.14,12.43,0,18.63-.7.18-5.2,4.2-9.05,5.51-17.88,6.06-13.89-2.89-22.89,15.78-2.52,5.23-6.14,9.08-5.32,15.97-17.64-2.31-41.67-6.72-58.54-5.32-37.59-10.08-48.78-10.56-42.72-54.69,1.7-12.4,7.56-38.81,10.78-51.75,2.12-8.49,7.89-27.32,11.84-34.72,2.94-5.51,6.37-10.3,12.11-13.18,4.15-1.69,9.26-6.47,13.31-7.98,2.4-.9,7.04-1.53,10.64-2.66,7.72-2.42,15.62-5.54,23.95-5.32Z"/><path class="cls-19" d="M664,365.67c-4.47,19.44-6.27,41.3-5.32,61.21.68,14.42,4.41,26.25,5.32,39.92,1.47,22.14,1.5,41.24-19.29,53.89-16.59,10.09-41,8.62-57.88-.67-6.19-3.4-18.87-17.55-22.45-24.12-19.74-36.31,11.08-38.36,22.45-66.35,6.08-14.97,4.31-28.52,7.98-42.58,1.78-6.8,15.5-32.51,21.29-34.59,8.22-2.96,37.37,1.43,45.21,6.79,2.88,1.97,2.23,6.09,2.69,6.52Z"/><path class="cls-13" d="M1071.15,312.45c.89,0,1.77,0,2.66,0,15.04.13,30.2-.25,45.24,0,4.41.07,8.92-.28,13.31,0,3.49.23,7.05-.5,10.51.12,4.8,22.02,7.75,44.48,11.98,66.62.84,4.4,3.64,8.15,4.12,10.43.79,3.78-.55,9.18,0,13.31-1.4.47-2.27,2.31-6.38,2.81-37.94,4.67-85.92-3.47-124.98-.52-3.3-1.11-13.36-35.66-15-42.21-4.01-16.01-3.75-34.87-10.64-50.53,9.25,2.76,22.35-2.64,29.27-2.69,10.31-.07,26.73,2.65,39.92,2.66ZM1078.32,352.66c-11.07,2.77-10.33,23.82,7.09,18,9.41-3.14,3.12-20.56-7.09-18Z"/><path class="cls-14" d="M1403.78,269.88c.62,4.42,1.89,8.83,5.28,12,10.53,4.37,25.36.87,26.65-12,31.3.47,36.25,11.01,45.24,37.26,2.13,6.22,3.38,12.45,5.32,18.63l-26.25,8.43c-1.68,2.38.4,7.84-.36,10.2-4.41,13.56-8.9,27.53-7.98,42.58-23.59,3.4-36.02,7.77-61.21,2.66-2.85-6.23-3.66-13.07-5.89-19.54-1.13-3.28-4.66-4.1-4.76-4.41-3.38-11.32,1.01-41.05-18.63-37.26,6.39-29.23,3.53-59.1,42.58-58.54Z"/><path class="cls-13" d="M805.04,211.33c.06,6.23,2.25,9.51,2.66,13.31,2.53,23.32,7.71,45.96,10.65,69.18l-19.99,2.64-11.95,61.23c-4.5-1.09-12.67-7.28-15.97-7.98v-2.66c2.57-10.98,4.79-27.44,5.29-38.61.75-16.34-.47-32.86.01-49.19-3.28-4.32-4.82.05-5.31,3.93-2.01,15.71.51,36.75.11,53.37-.18,7.59-2.94,14.11-2.77,22.52-6.87.56-14.61-.8-21.29,0-8.11.97-9.75,2.77-15.97,7.98,1.4-42.24,7.22-81.02,21.29-122.41,16.86-8.24,34.21-12.91,53.22-13.31Z"/><path class="cls-23" d="M1486.28,325.76c.25.81-.25,1.85,0,2.66,6.44,21.26,27.15,63.22,3.65,79.49-7.52,5.21-17.78,3.49-24.94,8.33-31.61-5.51-56.79-4.1-87.82,0-15.58-6.72-5.19-14.58-23.95-15.97,3.85-16.26-14.97-1.68-18.62-5.32v-21.28c5.86,1.36,8.72-.94,13.29-2.68,1.63-.62,3.53,1.47,5.35-1.84,4.43-8.08,5.75-30.6,7.96-40.74,19.64-3.79,15.25,25.93,18.63,37.26l-7.99,18.58c6.44,2.33,11.84,3.99,18.63,5.37,25.18,5.1,37.61.74,61.21-2.66,7.48-1.08,16.04,1.04,23.94-2.69l-15.96-39.88c.77-2.36-1.31-7.82.36-10.2l26.25-8.43Z"/><path class="cls-20" d="M1116.38,213.99c.24,2.59-.37,5.48,0,7.98,1.49,10.15,6.65,11.41,7.37,14.94,1.07,5.24-4.11,26.74-4.69,34.31-.95,12.39-2.41,29.21-.02,41.23-15.04-.25-30.19.13-45.24,0-1.96-13.12,1.16-35.71-7.96-45.24l5.3,45.24c-13.19-.01-29.6-2.73-39.92-2.66,12.72-28.71,22.83-75.52,54.01-88.35,9.26-3.81,21.23-5.54,31.14-7.45Z"/><path class="cls-7" d="M1467.65,240.6c4.88,16.19,21.95,26.49,23.95,37.26,1.26,6.79-3.31,25.85-10.64,29.27-8.99-26.25-13.94-36.79-45.24-37.26.79-7.89-3.43-27.2-6.53-34.72-6-14.56-24.39-45.96-41.37-47.77,14.53-26.94,56.12-23.8,69.32,3.86,6.86,14.37,5.96,34.23,10.52,49.36Z"/><path class="cls-7" d="M834.31,208.67c-.36-.9-8.35-6.52-7.98-10.62,29.77,3.26,24.99-25.77,28.7-46.32l-19.01-14.73-17.71,26.43-9.66-5.02c-13.65,3.28-1.63,14.29-.73,22.24,1.03,9.06-2.97,20.07-2.87,30.67-19.01.4-36.37,5.06-53.22,13.31,6.28-18.47,12.83-30.53,19.91-47.95,12.31-30.27,13.15-70.38,60.66-60.55,40.99,8.48,36.88,78.98,1.92,92.53Z"/><path class="cls-19" d="M1257.42,373.66c13.87-2.34,7.46-17.37,13.35-22.58,8.19-7.24,31.98-12.21,42.44-7.93,1.15.47,19.37,13.23,20.3,14.33,5.63,6.64.77,11.04,14.38,13.51-4.57,1.74-7.43,4.04-13.3,2.68v21.28c3.65,3.64,22.48-10.94,18.62,5.32-7.01-.52-14.27.36-21.3-.02-.18,4.41.25,8.9.01,13.32-14.45,4.63-37.39,6.12-43.74-10.75-1.64-4.37-.8-11.04-1.9-12.78-2.11-3.33-15.1.84-10.26-16.4-1.74.09-3.57-.17-5.31.01-6.87.7-6.27.62-13.31,0Z"/><path class="cls-13" d="M895.51,293.82c-19.49.05-39.07-.04-58.56.01-1.46-22.39,2.03-47.13.01-69.2-.1-1.13-2.1-8.69-2.66-10.64,52.91.68,49.03,41.38,61.21,79.83Z"/><path class="cls-23" d="M576.18,179.4c1.05,19.45,5.13,39.63-5.4,57.12-6.19,3.42-12.02,5.06-18.53,1.43-.34,4.38.38,8.94-.02,13.3-1.32,14.22-3.61,17.98-20.06,16.14-11.98-1.34-13.97-8.09-14.54-18.8-.65-12.11,2.27-16.11,5.32-26.61,1.55-5.32,3.22-18.94,5.14-20.14,3.6-2.25,10.83-.21,16.11-2.52,7.44-3.26,17.45-22.78,31.97-19.92Z"/><path class="cls-23" d="M1153.64,174.08c-1.98,2.26-4.91,6.15-5.05,9.13l5.05,30.79c-2.78,3.33-5.62,7.03-7.98,10.64-11.72,7.78-19.53,7.23-29.27-2.66-.37-2.51.24-5.39,0-7.98-1.29-13.79-3.49-4.69-10.81-11.77-9.67-9.36-12.43-44.44-7.81-57.42,5.99,5.23,18.86,7.49,24.95,10.98,11.2,6.41,7.64,16.59,23.94,7.76l7,10.53Z"/><path class="cls-23" d="M1435.71,269.88c-1.29,12.87-16.12,16.37-26.65,12-3.39-3.17-4.67-7.58-5.28-12-.78-5.58,1.79-13.65-1.27-18.7-2.12-3.49-8.71-3.4-11.34-5.95-8.34-8.06-10.29-37.3-8.55-48.48.94-6.05,3.55-6.3,5.2-9.37,16.99,1.81,35.37,33.21,41.37,47.77,3.1,7.52,7.32,26.83,6.53,34.72Z"/><path class="cls-23" d="M805.04,211.33c-.09-10.6,3.9-21.62,2.87-30.67-.9-7.96-12.92-18.97.73-22.24l9.66,5.02,17.71-26.43,19.01,14.73c-3.71,20.54,1.07,49.58-28.7,46.32-.37,4.09,7.63,9.72,7.98,10.62.5,1.26-.44,3.8,0,5.32.56,1.95,2.56,9.51,2.66,10.64-10.26,4.92-18.85.51-29.27,0-.41-3.8-2.61-7.07-2.66-13.31Z"/><path class="cls-9" d="M1097.76,144.8c-3.7-3.23-11-13.73-7.77-18.42,35.12-15.62,83.33-17.99,73.66,35.11-2.17,11.93-8.42,10.78-10.01,12.59l-7-10.53c-16.29,8.83-12.74-1.35-23.94-7.76-6.09-3.48-18.95-5.75-24.95-10.98Z"/><path class="cls-19" d="M522.96,221.98c-25.69-17.5-21.14-59.92,11.9-63.92,14.09-1.71,27.44,2.95,41.33,2.7.24,6.17-.35,12.47-.01,18.64-14.52-2.86-24.53,16.66-31.97,19.92-5.27,2.31-12.51.27-16.11,2.52-1.92,1.2-3.59,14.82-5.14,20.14Z"/><path class="cls-23" d="M664,365.67c1.56,1.44,5.28-1.54,7.98,7.98,2.43,8.56.83,17.94.05,26.57l8.11,1.49-.55,20.8-4.01,3.99-16.91.37c-.94-19.91.86-41.77,5.32-61.21Z"/><path class="cls-10" d="M427.16,171.41c-1.14-.58-5.03-2.61-5.32-2.66l2.66-2.66c1.22,1.7,2.82,2.86,2.66,5.32Z"/><polygon class="cls-13" points="930.11 293.82 927.45 293.82 928.76 291.21 930.11 293.82"/><path class="cls-13" d="M727.86,357.69c.06-2.43,2.66-2.47,2.66-2.66l-2.66,2.66Z"/><path class="cls-26" d="M1425.07,1033.61c-.5-5.42,1.52-11.09,7.19-12.78,6-1.8,60.44-1.49,62.29,1.04l2.38,11.74c-23.91.11-47.94-.15-71.85,0Z"/><path class="cls-26" d="M1339.92,1033.61c-22.14.03-44.39-.02-66.53,0,3.56-26.73,33.68-6.26,46.77-5.32,8.92.64,19.49-14.06,19.76,5.32Z"/><path class="cls-26" d="M1398.46,1033.61c-1.63-6.93,6.14-7.41,11.94-8.02l1.37,8.02c-4.43.02-8.87-.01-13.31,0Z"/><path class="cls-22" d="M525.62,597.19c-6.65,9.37,6.88,17.85,15.97,15.97.12,1.76-.13,3.56,0,5.32-4.8,4.88-16.84,11.13-19.43,16.72-2.07,4.48.53,8.73-.38,12.75-1.17,5.17-6.11,4.64-6.73,7-2.37,8.99.66,14.9,10.59,12.96,6.41-8.15,9.31-23.52,21.28-25.49,3.27,29.55-5.02,50.46,18.63,74.51,1.42,1.45,5.26,2.42,5.33,4.28l-34.59,150.05,10.07-4.54,36.49-147.13h51.89c-.33,11.48.46,23.13,0,34.59-27.67,5.83-34.77,36.52-2.66,37.26-1.27,25.02-5.62,54.64-5.52,78.46.04,11.04,4.07,22.79,10.83,8.01.68-27.9,1.38-55.97,2.68-83.81,5.18-.42,10.91.61,15.97,0,8.15,7.62,26.37-3.59,31.93,7.98-2.34,1.45-11.95,14.36-12.75,17.87-3.75,16.38,7.74,35.35,23.38,40.66-9.13-15.54-.28-25.67.01-37.24,10.36,6.91,10.27,58.35,13.32,61.22l7.95-.03c-1.37-28.38-9.95-55.95-13.35-83.95-.8-6.61,2.83-12.92,2.72-14.49,3.59-3.93,12.44-8.26,15.22-11.45,1.3-1.49.4-4.09.74-4.51,6.96-8.57,12.42-16.31,18.68-25.36,2.29-3.31,2.02-7.89,7.93-6.57,4.05,22.8,15.75,49.93,20.62,73.84,2.09,10.26,1.57,33.54,4.7,40.54.96,2.15,16.8,17.43,19.13,18.12,7.82,2.32,19.02-.44,27.4.52-11.74-12.78-20.08-5.4-23.23-25.97-8.67-56.67,1.58-140.5-16.68-192.21h13.31c.3.77-.29,1.88,0,2.66.92,2.48,2.21,4.14,2.66,5.32,2.88,7.57,21.41,66.58,35.94,42.6,3.47-5.72-2.38-43.73-4.01-53.24,9.67,3.61,7.02,11.46,8.74,19.23.54,2.44,3.76,4.67,4.07,6.59.53,3.21-13.54,20.6,5.87,28.67,4.09,1.7,40.07,3.37,47.09,3.24,4.53-.08,7.63-2.59,11.4-4.51.06,2.66-.11,5.34-.02,7.99,14.95-1.31,32.25,1.73,46.84.13,3.69-.41,6.05-2.77,6.4-2.8,31.65-2.17,64.1-3.15,95.8-5.32.88-.06,1.78.04,2.66,0-1.06,10.97-3.39,13.41,0,23.95.26.79-.19,1.82,0,2.66l-2.62,1.32c.47,1.57,1.47,1.15,2.62,1.34,7.53,1.23,15.73-1.44,24.1,1.19,9.13,2.87,10.47,15.01,21.15,9.45-1.38-3.96-1.45-9.82-2.67-13.29-5.14-14.62-13.03-11.13-23.75-17.5-6.53-3.89.24-7.75-16.17-9.11-1.48-8.04,4.05-5.14,9.18-5.33,6.6-.24,13.28.62,19.81-.29,6.39-21.56-1.23-46.27,9.33-66.5l41.51-2.39c-2.99,8.71-1.4,18.56-2.66,26.61-13.94,3.03-4.01-9.96-11.71-16.22-10.47-8.52-28.2,5.59-28.2,14.89v49.23c14.16-2.09,21.23-2.82,34.59,2.66l-5.44,120.64c.8,3.31,10.28,4.53,13.42,4.43-.04,7.86-3.28,15.16-7.98,21.29-3.65-.01-37.02,9.13-40.73,11.16-3.44,1.88-7.96,5.26-1.85,7.47,1.57,3.63,5.86,2.64,9.09,2.81,16.17.88,40.46,1.32,56.34,0,4.3-.36,5.56.75,9.08-2.82,4.6-4.66,2.39-9.96,2.66-15.97.22-4.92.49-11.21,0-15.97-.46-4.48-2.56-5.04-2.66-5.32-.45-1.3.3-3.68,0-5.32,4.42-.24,8.91.2,13.32.01,3.08-3.01-1.99-76.16,7.97-85.17,7.48,37.41,34.15,76.36,42.58,114.43-.23.71-2.15,1.6-2.66,2.66-2.64,5.47.62,10.11,2.66,15.97-1.77,8.95-5.69,13.75,7.97,13.29.52-6.05-.67-12.66.01-18.61h34.6c2.18-4.45-2.51-9.12-2.67-10.64-.63-6.29.91-12.77-.62-19.34-4.15-17.79-16.03-39.39-20.67-57.83,2.16-20.29-1.33-43.33,5.32-63.87h50.56l10.66,165h7.96s-7.96-165.02-7.96-165.02l10.25.39,4.4,12.95c7.4-.09,6.59-8.49,6.74-13.22l34.23.15,34.8,149.64,8.02,1.77-34.6-151.63c10.77-.09,9.54-4.99,13.33-10.68.99-1.49,3.88-1.91,5.54-6.33,8.59-22.93,5.28-49.85,10.43-73.51,0,.35,2.87,2.7,2.8,6.43-.15,8.42-7.64,40.52-.31,45.63,24.16,7.42,46.25-9.33,69.36-4.16,1.73,13.59,3.6,27.57,5.34,41.23,5.96,46.88,12.88,93.74,18.52,140.67l8.07,7.05c-5.91-.19-10.71-2.87-16.9-2.49-23.68,1.47-65.54,15.12-91.71,20.28-22.04,4.35-55.5,5.64-75,11.48-1.21.36-1.94,2.26-2.66,2.66-1.77.98-3.51,3.95-5.32,5.32-.63-.47-5.88.12-7.98,0-35.36-2.06-71.27,2.24-106.44,2.66-1.77.02-3.55.02-5.32,0-45.6-.41-91.22-3.8-137.15-2.74-5.05.12-10.35-1.25-14.53,2.74-7.07-.22-14.22.21-21.29,0-45.52-1.32-93.03-3.82-139.81-2.74-5.05.12-10.36-1.26-14.53,2.74-2.66-.04-5.32.04-7.98,0-77.6-1.15-155.38.71-233.02.18-9.48.39-5.64-7.04-14.46-8.16-26.79-7.67-55.5-9.12-83.05-14.08-60.62-10.91-131.95-25.76-188.38-49.79-.38-.16-1.71-3.39-4.55-4.66-9.61-4.32-19.44-9.74-30.05-11.3l-21.29-77.17c12.95-3.38,35.51-26.43,39.92-39.92,6.06,15.05,11.4,17.58,18.63,26.61,2.54,3.16,16.39,51.03,15.97,55.88-.57,6.58-8.9,14.47-5.31,23.96h7.96c1.29-1.17-3.05-9.86,3.95-7.96,13.34,3.63,39.72,34.39,54.58,12-4.21-5.08-6.76-7.97-13.28-9.38.29-1.66-.44-3.98,0-5.32.14-.43,3.44-.52,2.66-2.63-1.62-.42-4.36.48-5.33-.03-1.59-.84-1.81-1.12-2.66-2.66-4.81-8.74-3.2-3.13-5.32-5.32-20.33-20.95-16.8-38.63-26.61-61.21l.03-5.32c5.83,3.01,5.14,3.99,10.62,2.66,1.32-.32,3.39.76,4.94-.4,1.17-1.17.11-3.57.39-4.92,2.61-13.05.86-4.2,7.74-9.55,2.31-1.8,2.58-6.24,4.65-6.61,3.49-.63,13.28,3.88,20.93,3.06,6.67-.71,10.47-6.11,17.24-5.53-.06.88.06,1.78,0,2.66l-5.36,158.1,7.96,1.56c5.17-40.32,11.19-80.71,16.01-121.09,2.78-23.34,5.35-46.99,8-70.5,1.64-14.53,1.11-31.16,2.66-45.24.68-6.19,1.7-14.74,2.66-21.29.8-5.45,4.63-11.71,2.66-18.64,1.04-1.08,23.26,2.48,27.1,3.51,5.7,1.52,17.01,8.83,20.79,9.81Z"/><path class="cls-7" d="M408.53,674.36c-6.25,2.16-36.22,23.36-37.06,28.32l15.77,19.58c-5.48,1.33-4.79.35-10.62-2.66l-.03,5.32c-1.63-3.75-8.1-8.34-9.3-13.29l-17.31,15.95c-7.23-9.03-12.57-11.56-18.63-26.61-4.67-11.61-7.02-23.89-13.31-37.26,1.67.28,3.93-.41,5.32,0,1.78,3.2,1.58,8.08,6.68,10.59.94-3.63-3.47-9.64-6.68-10.59-1.79-3.22-1.56-8.11-6.67-10.63l-1.32,5.31c-5.12-10.22-10.08-20.78-15.93-30.64-4.71-2.88-24.64-1.29-31.97-1.3-.89,0-1.77,0-2.66,0-.06-2.66.09-5.33,0-7.98,17.48-2.32,30.05-13.93,42.6-25.28-17.16-1.48-26.23,18.13-42.6,19.96-6.38-18.98-48.41-33.03-64.91-40.34-3.98-1.76-8.26-1.49-6.94-7.56,19.13.02,41.09-10.18,61.21-13.31,24.82-3.86,76.17-8.98,99.14-2.01,14.32,4.35,17.47,15.79,22.59,27.97,12.55,29.87,21.45,65.61,32.62,96.45ZM294.08,623.79v-3.94s-3.99-3.98-3.99-3.98l1.38,7.92h2.61ZM336.66,677.03l-5.27,3.93,15.92,17.33c-.61-7.97-12.28-12.79-10.65-21.26ZM352.64,700.99h-5.29s.01,3.94.01,3.94l3.98,4.02,1.3-7.96Z"/><path class="cls-19" d="M235.56,315.11c9.32,6.71,2.29,15.29,2.66,18.63-11.28.15-25.95,20.27-31.99,22.72-4.69,1.9-16.27-5.29-18.57,2.61-2.01,6.93,9.09,11.79,9.9,18.88,1.14,10.06-5.77,27.18-4.58,38.28-5.74-.35-18.89,4.27-18.21,11.48,13.73,20.7,19.04,49.27,31.45,69.74,6.97,11.5,8.06,6.17,13.37,9.26,2.59,1.5,5.6,22.24,13.31,23.95-2.32,3.83-2.55,10.76-6.77,15.86-7.45,8.99-23.31,10.66-33.92,7.54-8.05-2.37-6.88-13.28-15.19-12.75-.02-21.78-29.18-64.71-31.93-101.12-.47-6.15-2.26-12.63,0-18.63,2.3-6.11,5.2-9.56,7.98-18.63,5.02-16.38,13.18-33.1,5.32-50.56,4.48-7.39,11.38-25.71,13.31-34.59,5.58,11.96,21.39-3.65,30.76-5.16,12.67-2.04,23.43,2.63,33.11,2.5Z"/><path class="cls-22" d="M224.92,740.89c16.06-.46,32.48,3.86,45.22-8l.18,7.77c3.44.75,7,.17,10.48.23,5.29,22.95,9.49,46.55,15.97,69.19l-45.07-17.46-26.78-3.83c.24-15.93-.17-31.97,0-47.9Z"/><path class="cls-9" d="M254.19,525.34v26.61c-20.11,3.13-42.08,13.32-61.21,13.31-3.55,0-7.1,0-10.64,0-.59-.58-3.63-.71-5.32-2.66l-2.66-2.66c-1.43-7.02,2.67-13.39,2.66-18.63,8.31-.53,7.14,10.38,15.19,12.75,10.61,3.12,26.47,1.46,33.92-7.54,4.22-5.1,4.46-12.03,6.77-15.86,5.84-9.65,13.05-12.4,21.29-18.63v13.31Z"/><path class="cls-2" d="M214.27,740.89v50.56c-8.69,1.53-24.61-2.17-31.93,0l-2.66-13.31c10.98-4.71,23.26-25.05,23.95-37.26,3.55-.01,7.1.06,10.64,0Z"/><path class="cls-16" d="M291.44,740.89l21.29,77.17v13.32s-10.34-.33-10.34-.33c-.43-7.43-3.66-14.11-5.62-20.98-6.48-22.64-10.67-46.23-15.97-69.19,3.02.05,8.31.61,10.64,0Z"/><path class="cls-16" d="M224.92,740.89c-.17,15.93.24,31.97,0,47.9-.27,17.92.36,35.47-2.67,53.24h-7.96c-.02-16.83-.01-33.76-.01-50.58v-50.56c3.55-.06,7.1.1,10.64,0Z"/><path class="cls-10" d="M267.5,626.46c-1.42,16.57,1.91,35.81.1,51.99-.45,3.98-.55,8.21-5.39,9.22-1.83-19.31,2.39-42.45-.03-61.2h2.66c.89,0,1.77,0,2.66,0Z"/><path class="cls-16" d="M192.98,565.26c-1.32,6.07,2.96,5.8,6.94,7.56,16.49,7.31,58.53,21.36,64.91,40.34.38,1.14-.06,3.65,0,5.32.09,2.66-.06,5.33,0,7.98h-2.66c-.69-5.35-8.05-22.64-11.36-25.89-10.27-10.1-52.23-22.26-66.68-29.9-2.52-1.7-1.51-5.13-1.8-5.41,3.55,0,7.1,0,10.64,0Z"/><path class="cls-8" d="M323.38,663.72c3.21.95,7.61,6.96,6.68,10.59-5.1-2.51-4.9-7.39-6.68-10.59Z"/><path class="cls-8" d="M323.38,663.72c-1.4-.41-3.65.28-5.32,0-.84-1.79-1.77-3.55-2.66-5.32l1.32-5.31c5.1,2.52,4.87,7.41,6.67,10.63Z"/><path class="cls-15" d="M177.02,562.6c-.63-.73-2.36-1.2-2.66-2.66l2.66,2.66Z"/><path class="cls-19" d="M1632.64,549.29c10.57-.22,36.14,1.56,47.9,2.66,19.4,1.82,45.49,13.14,63.87,13.31l-7.98,7.98c-.8.27-1.86-.27-2.66,0-24.67,8.21-65.38,18.46-74.51,45.24h-5.32c-1.77,0-3.55,0-5.32,0-.29-1.28-1.41-2.48-2.66-2.66-6.26-.92-19.17,1.83-23.39-.59-1.28-.73-15.35-21.13-17.07-24.15-4.96-8.68-4.85-24.3-15.42-25.83,4.27-4.13,10.03-10.4,15.84-12.11,4.21-1.24,22.13-3.76,26.74-3.86Z"/><path class="cls-26" d="M1760.37,740.89c-.3,18.51,11.87,32.79,10.64,50.56-19.35-1.15-39.16.84-58.54,0-.11-13.57-5.39-32.54-2.66-47.9l2.66-2.66c15.87.21,32.04.45,47.9,0Z"/><path class="cls-22" d="M1664.57,740.89c1.65.28,3.59-.17,5.32,0,.88.09,1.78-.07,2.66,0,3.5.28,7.12-.15,10.64,0,2.86,7.2-4.34,7.54-5.14,9.98-2.12,6.48-.99,12.91-4.98,21.14-5.34,11.02-17.07,16.97-21.81,27.42-8.6,2.62-16.09,6.51-23.95,10.64,5.47-19.97,6.72-46.03,13.31-66.53,1.01-.56,1.95-2.44,2.66-2.66,1.14-.36,3.59.74,4.83-.52,1.33-1.35.12-3.79.49-4.81,6.34-.8,10.18,4.35,15.97,5.32Z"/><path class="cls-2" d="M1699.16,740.89c.08,16.82-.11,33.74,0,50.56-15.2,0-33.31,3.53-47.9,7.98,4.75-10.44,16.47-16.4,21.81-27.42,3.99-8.23,2.85-14.66,4.98-21.14.8-2.44,8-2.79,5.14-9.98,5.3.22,10.66-.11,15.97,0Z"/><path class="cls-16" d="M1709.81,740.89v2.66c-2.72,15.36,2.55,34.33,2.66,47.9.14,16.84-2.7,32.32-2.62,49.02l-6.7,1.58c-6.04-1.91-3.94-42.52-3.99-50.6-.11-16.82.08-33.74,0-50.56,3.55.07,7.1-.05,10.64,0Z"/><path class="cls-16" d="M1781.66,740.89c3.72,17.78,9.47,35.51,13.31,53.22.18.85-.18,1.81,0,2.66.76,3.57,1.96,7.06,2.66,10.64,1.53,7.84,8.73,26.47-1.3,26.6-4.71-1.08-13.08-33.54-14.67-39.91-4.18-16.72-5.29-36.38-10.64-53.22,3.52-.15,7.15.3,10.64,0Z"/><path class="cls-5" d="M1659.25,618.48c-.26.76.23,1.8,0,2.66-4.79,18.14-5.23,87.95-2.84,107.95.83,6.95,3.03,8.08,8.17,11.8-5.79-.97-9.63-6.13-15.97-5.32,10.76-29.39-4.41-84.62,5.32-117.09h5.32Z"/><path class="cls-24" d="M1771.01,740.89c5.36,16.84,6.46,36.51,10.64,53.22-3.28-2.26-6.82-2.43-10.64-2.66,1.23-17.77-10.95-32.05-10.64-50.56,3.54-.1,7.11.15,10.64,0Z"/><path class="cls-23" d="M1733.76,573.24c1.43,6.83-3.29,5.46-7.28,7.22-25.1,11.05-53.11,15.01-67.23,40.68.23-.86-.26-1.9,0-2.66,9.13-26.78,49.84-37.02,74.51-45.24Z"/><path class="cls-5" d="M1709.81,743.55v-2.66c.89.01,1.77-.01,2.66,0l-2.66,2.66Z"/><path class="cls-5" d="M1672.55,740.89c-.88-.07-1.78.09-2.66,0h2.66Z"/><path class="cls-22" d="M1558.12,682.34c-4.9,24.85-6.87,49.01-5.32,74.51-5.29,9.43-10.48,15.42-18.61,22.67l4.39,6.3c19.71,3.3,45.97-18.2,50.01-36.64,2.75-12.54,3.19-27.49,6.79-42.88,10.59,11.87,19.59,24.94,34.59,31.93-4.65,26.7-12.49,52.9-15.97,79.83-10.65-.14-20.61,6.87-29.94,11.44-3.8,1.86-8.81.18-7.32,7.19-19.43-.38-42.04,16.14-61.21,21.29-6.94-55.39-9.76-118.78-13.31-175.63h55.88ZM1589.75,788.51c1.88-2.18.8-13.4-3.68-15.64-5.73,6.48-23.37,18.13-6.02,17.89,1.29-.02,9.38-1.87,9.7-2.25Z"/><path class="cls-5" d="M1699.16,791.45c.05,8.09-2.05,48.69,3.99,50.6l6.7-1.58c-.09-16.7,2.76-32.18,2.62-49.02,19.39.84,39.2-1.15,58.54,0,3.82.23,7.37.4,10.64,2.66,1.59,6.37,9.95,38.83,14.67,39.91,10.03-.13,2.83-18.76,1.3-26.6,31.55,11.08,59.93,27.28,8.64,39.24-59.09,13.78-130.9,11.25-190.13-.11-13.33-2.56-25.79-9.59-39.37-9.86-1.5-7.01,3.51-5.32,7.32-7.19,9.33-4.57,19.29-11.58,29.94-11.44-.55,4.24-6.35,8.39,1.33,13.25,2.78-.2,10.89-17.28,11.97-21.24,7.86-4.14,15.35-8.02,23.95-10.64,14.59-4.45,32.7-7.99,47.9-7.98Z"/><path class="cls-13" d="M1502.24,658.39c.43,7.92-.49,16.04,0,23.95,3.55,56.85,6.37,120.24,13.31,175.63.27,2.15-.09,4.44-.02,6.62l-2.64,1.37-8.07-7.05c-5.65-46.92-12.56-93.79-18.52-140.67-1.74-13.66-3.61-27.64-5.34-41.23-.64-5.05.63-10.91,0-15.97l21.29-2.66Z"/><path class="cls-26" d="M1395.8,900.55c9.18,28.29-6.63,29.25-30.76,26.76-20.51-2.11-13.15-10.94-11.82-26.76,14.02.82,28.5-.2,42.58,0Z"/><path class="cls-2" d="M1542.16,980.39v5.32c-7.99.12-13.5.22-21.29,2.66-.28-2.64-.35-4.47,2.66-5.32,4.56-1.29,13.2.5,18.63-2.66Z"/><path class="cls-2" d="M1329.27,897.89h-2.66c.72-.4,1.46-2.3,2.66-2.66v2.66Z"/><path class="cls-6" d="M1797.62,796.77h-2.66c-.18-.85.18-1.81,0-2.66l2.66,2.66Z"/><path class="cls-6" d="M618.76,897.89c8.82,1.12,4.98,8.56,14.46,8.16,77.65.53,155.42-1.33,233.02-.18,1.48,8.05-4.07,5.13-9.19,5.32-2.53.09-31.9-1.69-22.73,5.31,8.57,1.18,29.05-3.76,33.28,5.31,2.48,5.31.2,11.69,1.94,16.69.65,1.87,8.02,17.19,8.67,17.94,3.79,4.42,14.14,1.06,16.78,9.82,1.4,4.64,1.36,18.22-.01,22.9-3.51,11.96-31.89,6.02-43.15,7.4-24.16,2.98-26.94,7.7-55.99,7.65-58.56-.1-117.91-1.95-175.76-.06-16.12.53-30.61,11.95-46.7,6.96-3.97-1.23-6.66-5.72-11.93-6.68-6.55-1.2-14.23,1.28-20.67-.62-8.84-2.61-5.82-14.17-9.66-16.96-5.63-4.08-20.99,2.8-27.04-4.89-7.37-9.36,2.46-53.85-4.9-58.97-8.84-2.75-18.1.25-27.04-2.29-6.38-1.82-5.01-8.39-11.64-9.57-8.98-1.59-33.21,5.54-30.69-10.59,36.32-.22,72.79.37,109.1,0-.4,6.9-7.23,23.29,1.71,26.24,16.47,3.03,34.37-1.73,49.9-2.02,6.3-.12,30.91,8.59,30.91-4.11,0-10.18-11.8-13.4-10.66-22.76,2.61.13,5.44-.32,7.98,0ZM812.38,941.12c-4.72-4.73-25.93-4.76-30.67-.02-4.7,4.7-4.74,25.93,0,30.67,5.24,5.24,60.33,9.74,48.71-12.73-12.3-3.6-13.46-13.33-18.04-17.92Z"/><path class="cls-5" d="M145.08,783.47l12.39,15.68c6.67-1.24,13.73-1.62,20.36-3,3.24-.67,4.2-4.6,4.51-4.7,7.33-2.17,23.24,1.53,31.93,0,0,16.82-.01,33.75.01,50.58h7.96c3.04-17.77,2.41-35.32,2.67-53.24l26.78,3.83,45.07,17.46c1.96,6.86,5.19,13.55,5.62,20.98l10.33.33v-13.32c10.62,1.56,20.45,6.98,30.06,11.3,2.83,1.27,4.17,4.5,4.55,4.66-5.95,7.64-19.57,10.53-28.68,12.57-49.1,10.99-108.95,12.8-158.91,8.69-11.91-.98-74.56-8.37-79.86-13.29-6.15-5.71-2.39-12.71,1.33-18.62,12.04-.27,29.51-10.34,42.58-10.64-1.3,5.14-1.33,13.01-2.65,18.61l10.24-.38,13.69-47.5Z"/><path class="cls-26" d="M610.78,897.89c-1.13,9.37,10.66,12.58,10.66,22.76,0,12.7-24.61,3.99-30.91,4.11-15.53.3-33.43,5.06-49.9,2.02-8.94-2.95-2.11-19.33-1.71-26.24,23.35-.24,50.82-3.71,71.85-2.66Z"/><path class="cls-22" d="M153.07,402.93l-13.31,2.66c-2.8-7.71-13.63-18.36-13.31-29.27,16.73-4.27,22.73-8.78,31.93-23.95,7.85,17.46-.3,34.18-5.32,50.56Z"/><path class="cls-16" d="M57.24,221.97c-5.29-1.42-5.98-5.68-5.27-10.64,5.29,1.42,5.98,5.68,5.27,10.64Z"/><path class="cls-10" d="M1653.92,168.75l-14.86,18.64c-14.69-5.19-32.45,1.4-35.7-18.64h50.56Z"/><path class="cls-2" d="M1675.21,331.08c-.45,2.42.49,5.63,0,7.98-3.37,16.38-11.98,38.2,1.16,53.38,9.42,10.88,14.03.31,14.81,18.47-33.39.85-39.26,36.23-59.88,55.84-3.1-4.4-8.53-7.25-11.97-10.6-.47-.46-6.27-7.3-7.93-9.26-8.52-10.04-25.16-39.56-34.65-43.96l-15.87-30.7-41.37-6.5c9.44,15.97,15.99,33.95,27.97,47.84.35.41-.77,3.31.59,4.63,1.77,1.74,13.08,2.85,17.77,4.96,17.99,8.1,21.42,31.05,29.54,46.29-33.27-27.08-88.16-45.86-130.39-53.22,7.15-4.84,17.42-3.12,24.94-8.33,23.5-16.27,2.79-58.23-3.65-79.49,11.24-3.92,24.98,5,33.26,5,5.62,0,12.87-4.65,21.18-5.11,43.51-2.39,91.14.18,134.5,2.77Z"/><path class="cls-19" d="M1741.74,333.74c5.18,25.32,19.92,54.06,23.48,79.21.72,5.1,1.19,9.28-4.85,11.27-7.37-7.04-22.11-8.36-31.93-7.98-.49-6.42-10.53-23.92-10.58-33.63-.04-6.91,7.4-11.62,5.27-19.58-22.21,4.94-26.83-21.92-47.91-23.96.49-2.36-.45-5.56,0-7.98.55-2.99-1.64-5.37,1.65-8.22,10.68-9.25,35.5-9.51,48.11-2.95,6.8,3.54,10.78,11.35,16.77,13.84Z"/><path class="cls-2" d="M445.79,312.45c-3.23,12.94-9.08,39.35-10.78,51.75-6.07,44.13,5.13,44.61,42.72,54.69-27.27,2.26-100.09,27.54-118.16,48.16-13.18,15.05-8.26,20.83-4.25,36.99,1.29,5.2,4.07,7.26,5.32,10.64.17.46-3.76,1.94.26,8.82,12.99,22.23,68.59,41.09,92.88,52.39.04,10.86-2.21,21.02-2.66,31.93-.77,18.67-1.23,37.13-2.66,55.88-.13,1.76.13,3.57,0,5.32-4.42-.18-8.9.27-13.31,0-.37-.02-1.63-2.79-3.69-2.84-1.84-.05-1.37,4.06-3.02,4.71-5.89,2.34-16.24,2.18-19.9,3.45-11.16-30.84-20.07-66.58-32.62-96.45-5.12-12.19-8.27-23.62-22.59-27.97-22.97-6.97-74.32-1.85-99.14,2.01v-26.61c7.71-1.25,5.78,8.13,12.48,10.2,19.14,5.92,33.25-21.54,43.4-34.15.91-.71,1.7-1.84,2.66-2.66.43-.37,2.76.19,5.32-2.66,3.69-4.1,7.26-10.34,7.98-15.97,11.15-7.83,26.67-31.36,34.59-42.58,8.71-12.33,20.25-16.65,15.31-35.26-1.66-6.25-12.56-20.71-16.64-7.28l-2.65-5.35-6.62,14.67,13.26,1.29v10.64c-2.28,1.99-7.53,2.5-10.68,2.68l.04,18.61c-5.94,1.69-15.08,15.59-21.4,19.85-2.41,1.62-16,8.53-18.52,9.43-11.62,4.12-25.41,3.01-34.59,5.32-13.47-23.86-10.21-51.45-41.83-60.64-3.89-1.13-13.35-3.47-11.39,4.76-.88-.02-2.2-.22-2.66,0l-.02-23.96,17.4-2.56c9-16.96,5.84-31.31,3.23-48.76-.64-4.29-4.6-6.78-4.65-7.21-.37-3.34,6.66-11.92-2.66-18.63,23.72-.33,49.33-2.63,73.07-2.77,45.71-.28,91.48.43,137.16.11Z"/><path class="cls-10" d="M355.31,168.75c-5.45,20.81-48.1,22.97-50.56,0,16.81-.15,33.75-.16,50.56,0Z"/><path class="cls-10" d="M272.82,168.75c.89-.02,1.77.02,2.66,0l-1.33,2.61-1.33-2.61Z"/><path class="cls-2" d="M1504.9,1025.63l5.32-21.29c-1.47,12.86,1.71,9.55-5.32,21.29Z"/><path class="cls-2" d="M1510.23,999.01c1.04-5.72,2.56-8.19,7.98-10.64l-7.98,10.64Z"/><path class="cls-20" d="M1464.99,416.24c42.23,7.36,97.13,26.14,130.39,53.22.26.49,2.5.89,3.53,2.75,1.36,2.48-2.78,5.86,7.08,7.91-.75-11.08,7.94-15.96,13.34-23.96,3.44,3.35,8.87,6.2,11.97,10.6,20.62-19.6,26.48-54.98,59.88-55.84.33,7.73-1.61,21.38.4,27.54,4.49,13.75,37.95-8.08,36.86-22.22,9.82-.37,24.56.94,31.93,7.98,2.59,2.47,4.8,7.01,5.32,10.64,2.05,14.15-3.74,60.12-7.98,74.51-.57,1.92-8.08,7.31-5.3,13.29l7.96-10.63c1.47,15.24-1.06,32.4,0,47.9-5.53,1.68-8.33,5.39-15.97,5.32-18.37-.16-44.47-11.49-63.87-13.31v-21.29c16.03,1.61,51.6,7.97,65.16,2.61,4.2-1.66,7.72-2.05,6.66-7.92l-4.34,5.37-22.25-.04c1.87-12.07-1.4-18.09-10.59-25.3,10.45-10.04,13.71-29.56,15.9-43.89l-18.98,44.81c-12.18-1.7-25.77,3.45-36.87,3.07-5.71-14.4-5.77-29.97-5.35-45.23-5.3,2.4-5.18,11.53-8.39,16.86-4.56,7.59-13.21,12.52-15.54,20.39-3.82-.82-9.44.8-13.31,0-10.38-2.14-14.92-4.97-23.9-10.65-.67,5.66-4.38,11.8-8.03,15.97-33.51,38.37-139.51,55.57-188.94,63.87-2.09-18.33-5.75-15.29-21.29-15.97.27-1.68-.4-3.89,0-5.32,3.72-13.41-3.87-64.02-10.99-78.16-9.7-19.27-19.76-13.83-34.25-20.3-1.61-.72-8.47-9.74-13.31-10.64,0-7.08,0-14.2,0-21.29,12.59-.88,26.39,1.21,38.79.11,3.5-.31,5.76-2.68,6.45-2.77,31.03-4.1,56.21-5.51,87.82,0ZM1470.32,472.1h-34.62s2.67,47.93,2.67,47.93c37.46,6.95,31.7-20.61,31.95-47.93Z"/><path class="cls-23" d="M1760.37,512.03l-7.96,10.63c-2.79-5.98,4.73-11.38,5.3-13.29,1.25.28,2.54,1.45,2.66,2.66Z"/><polygon class="cls-6" points="1864.16 349.68 1864.16 347.07 1872.08 345.69 1868.1 349.68 1864.16 349.68"/><path class="cls-2" d="M1834.88,410.91v31.93c-23-3.61-45.93-8.66-69.19-7.98-.53-3.64-2.73-8.17-5.32-10.64,6.04-1.99,5.58-6.17,4.85-11.27-3.56-25.14-18.31-53.89-23.48-79.21,14.81,6.14,44.42-3.55,58.54-10.64-4.23,8.58.15,15.75,5.27,22.65l-6.6-3.98c-7.99.07-2.09,36.47.15,42.39,4,10.56,25.42,24.51,35.78,26.76Z"/><path class="cls-17" d="M1821.57,301.81c-15.84,3.56-15.02,6.06-9.28,21.23l-8.12-4.77c-2.23.11-3.2,4.48-3.88,4.82-14.12,7.1-43.74,16.78-58.54,10.64-5.99-2.48-9.97-10.3-16.77-13.84-12.61-6.56-37.43-6.3-48.11,2.95-3.29,2.85-1.1,5.24-1.65,8.22-43.35-2.59-90.99-5.16-134.5-2.77-8.31.46-15.56,5.11-21.18,5.11-8.28,0-22.02-8.92-33.26-5-.25-.81.25-1.85,0-2.66-1.95-6.18-3.19-12.41-5.32-18.63,7.34-3.42,11.91-22.48,10.64-29.27,17.32.08,34.56-4.63,52.03-2.81,38.84,4.05,69.18,5.76,109.07,5.59,35.63-.15,74.07.42,108.73-3.03,15.5-1.55,33.97-1.64,46.85-10.4,6.28,8.6,23.22,20.99,13.31,34.59Z"/><path class="cls-16" d="M1822.9,384.3c1.73.89,1.73,1.77,0,2.66v-2.66Z"/><path class="cls-17" d="M153.07,402.93c-2.78,9.07-5.68,12.51-7.98,18.63h-2.66c-2.59-4.39-1.39-12.48-2.66-15.97l13.31-2.66Z"/><path class="cls-16" d="M145.08,780.8v2.66l-13.69,47.5-10.24.38c1.32-5.6,1.35-13.47,2.65-18.61.82-3.26,3.92-11.78,5.32-15.97,1.5-4.47,6.73-9.3,5.32-15.97.56.06,7.69-.09,10.64,0Z"/><path class="cls-23" d="M179.68,778.14l2.66,13.31c-.31.09-1.27,4.03-4.51,4.7-6.63,1.37-13.69,1.75-20.36,3l-12.39-15.68v-2.66c1.77.06,3.55.02,5.32,0,.89-.01,1.78.03,2.66,0,8.86-.34,18.12.98,26.61-2.66Z"/><path class="cls-23" d="M134.44,780.8c1.41,6.67-3.82,11.5-5.32,15.97-4.91,2.53-11.26-2.49-13.31-2.66l5.32-15.97c3.18,1.73,9.48,2.24,13.31,2.66Z"/><path class="cls-16" d="M153.07,780.8c-.88.03-1.77-.01-2.66,0l1.33-2.61,1.33,2.61Z"/><path class="cls-19" d="M1390.48,549.29c-58.05-8.17-98.29,23.22-98.46,82.49.02,10.77-14.44,8.82-22.65,7.97-16.27-1.69-9.4-6.63-12.48-9.91-2.9-3.09-66.3-8.01-76.63-8.7,24.29-10.66,51.79-1.42,77.03-8.14.65-3.46-.05-7.01.14-10.49.4-7.02-1.37-18.17,0-23.95,2.05-8.65,21.24-37.25,26.26-49.58,1.57-3.86,3.86-7.09,2.99-11.62-15.2,16.22-21.32,42.37-31.91,61.2-5.67,10.08-14.37,17.98-18.63,26.61-8.38,2.08-12.71,5.97-22.53,5.44-9.88-.54-19.35-6.68-28.03-10.76s-22.39-5.8-23.95-18.63c-.89-7.34,2.04-14.16,2.66-21.29,9.64.57,22.8,2.46,31.1,2.55,4.11.04,5.12-2.3,6.16-2.55,1.98-.46,5.17,1.09,7.43-.53,1.42-1.24.18-4.33.56-4.79,26.05-31.61,22.96-92.25,71.85-95.8,20.21-1.47,47.49,5.74,63.87-7.98,14.49,6.47,24.55,1.03,34.25,20.3,7.12,14.14,14.71,64.75,10.99,78.16Z"/><path class="cls-21" d="M1185.57,599.85c8.68,4.08,18.15,10.22,28.03,10.76,9.81.53,14.15-3.35,22.53-5.44,7.09-1.76,13.82-3.62,21.29-2.66-.2,3.48.51,7.03-.14,10.49-25.24,6.72-52.73-2.52-77.03,8.14-9.64-.64-19.59.34-29.27,0-21.27-.75-38.93.08-59.76.11-139.26.23-278.02,1.38-416.57-10.75-.81-4.47-1.96-7.93-2.66-13.31,31.43,1.52,63.12,6.12,94.5,7.96,121.11,7.08,243.19,5.85,364.43-.08,18.05-.88,37.86,3.28,54.66-5.21Z"/><path class="cls-7" d="M717.22,546.63l-29.27,10.64c-3.6-8.06-8.77-22.39-12.63-28.53-1.71-2.72.15-4.69-5.98-3.39.23,14.15-.36,28.42-.01,42.56.29,11.52,1.25,18.48,2.66,29.27.7,5.37,1.85,8.83,2.66,13.31,1.85,10.22,6.76,19.44-7.98,18.63-4.03-18.98-4.77-43.21-17.24-58.6-12.8-15.79-39.93-26.9-59.93-23.9l-2.66-26.61c16.88,9.28,41.29,10.76,57.88.67,20.8-12.65,20.77-31.74,19.29-53.89,22.48-1.92,32.38,28.82,40.39,46.1,4.83,10.43,10.65,22.47,12.84,33.73Z"/><path class="cls-18" d="M964.7,488.08c-14.76-11.26-33.11-17.55-31.95-39.91l10.65-.02c-2.59-9.61-10.73-15.08-7.96-26.58,3.81-.69,6.96.3,10.52,1.52,6.43,2.2,6.16,7.06,10.73,9.09l-2.62-29.25,7.94,2.65,1.3-16.02,8.02-2.65,9.36,26.66c4.91-1.6,19.02-25.88,23.51-11.57,5.83,18.58-14.64,46.95-12.88,48.81,9-.29,13.1-12.64,21.09-14.86,13.31-3.69,6.94,13.51-2.49,16.29,13.06,16.13-9.82,27.04-21.27,35.84-7.93-.18-16.02-.17-23.95,0Z"/><path class="cls-13" d="M1129.69,565.26c-3.35,1.21-11.53.52-15.95,2.68l-21.31-63.88h90.48l15.97,42.58c-4.7-1.57-21.15-7.19-18.62,2.62l21.28,10.69c-1.04.24-2.05,2.59-6.16,2.55-8.29-.09-21.46-1.98-31.1-2.55-5.35-.32-9.57-3.54-19.73-2.34-10.83,1.28-11.96,6.61-14.86,7.66Z"/><path class="cls-7" d="M1015.26,498.73c-.8,26.87-2.27,44.86-16.39,68.75l-44.28-.13c-11.8-19.06-21.59-45.9-19.17-68.63h79.83Z"/><path class="cls-13" d="M733.19,549.29c.37-6.98,14.44-34.93,20.47-36.74l80.65,2.17-25.26,55.88c-4.64,6.1-21.78.46-25.3,2.64-4.73-23.6-31.18-20.8-47.87-10.65-.62-4.48-2.94-8.63-2.69-13.3Z"/><path class="cls-23" d="M717.22,546.63c-1.38,8.98,10.18,5.68,15.97,2.66-.25,4.67,2.07,8.82,2.69,13.3,16.69-10.15,43.14-12.95,47.87,10.65-.24.15,1.09,3.92-1.95,5.22-16.61,7.08-49.85,5.61-68.24,12.7-5.67-.63-20.39-15.47-22.95-20.58-1.19-2.37-.93-9.44-2.66-13.31l29.27-10.64Z"/><path class="cls-23" d="M1270.73,373.66c1.74-.18,3.57.08,5.31-.01-4.84,17.24,8.15,13.06,10.26,16.4,1.1,1.74.26,8.42,1.9,12.78,6.35,16.86,29.29,15.38,43.74,10.75-.09,1.76,0,3.56,0,5.32,0,7.08,0,14.2,0,21.29-1.85-.35-33.34,4.41-37.26,5.32l.12-12.08c-38.15.5-20.58-34.46-24.07-59.77Z"/><path class="cls-10" d="M1145.66,224.64c-3.95,6.04-7.73,8.23-9.3,10.67-3.65,5.68-.64,43.81-1.24,54.63-.42,7.61-3.65,14.77-2.77,22.52-4.39-.28-8.89.07-13.31,0-2.39-12.02-.93-28.84.02-41.23.58-7.57,5.76-29.06,4.69-34.31-.72-3.53-5.88-4.8-7.37-14.94,9.74,9.89,17.55,10.44,29.27,2.66Z"/><path class="cls-23" d="M759.8,349.71c3.17-.04,7.97-.57,10.64,0,3.3.7,11.47,6.89,15.97,7.98l-2.69,26.63c-4.33-2.91-8.86-2.01-13.28-2.68-.77-.51-1.38-3.24-4.42-4.78-4.71-2.38-21.39-3.87-22.31-7.61l1.27-17.06c2.61-3.76,10.57-2.43,14.81-2.49Z"/><path class="cls-24" d="M964.7,488.08c7.93-.17,16.02-.18,23.95,0,7,.16,19.2-1.42,24.86.42,8.82,2.88,1.78,9.35,1.75,10.22h-79.83c.44-4.09-.93-8.55,4.36-10.27,8.28-.99,16.63-.19,24.91-.37Z"/><path class="cls-11" d="M1331.93,440.19c4.84.91,11.7,9.93,13.31,10.64-16.37,13.73-43.65,6.52-63.87,7.98-.1-6.45,7.58-11.98,13.31-13.31,3.92-.91,35.41-5.67,37.26-5.32Z"/><path class="cls-23" d="M1164.28,559.93c-.62,7.13-3.55,13.95-2.66,21.29-9.75-.24-33.65-1.61-31.93-15.97,2.91-1.05,4.04-6.38,14.86-7.66,10.16-1.2,14.38,2.02,19.73,2.34Z"/><path class="cls-24" d="M669.32,567.92c-.35-14.14.24-28.42.01-42.56,6.13-1.3,4.27.67,5.98,3.39,3.86,6.14,9.03,20.47,12.63,28.53,1.73,3.87,1.48,10.93,2.66,13.31l-21.29-2.66Z"/><path class="cls-23" d="M1182.91,337.73c.9,2.81,10.14,4.78,10.64,9.29l-26.64-1.3,13.07-8.45c-4.12-25.91-3.04-52.24.27-78.05,10.34-1.23,2.65,4.33,2.65,6.66,0,13.79-2.77,63.2,0,71.85Z"/><path class="cls-2" d="M1158.96,389.62c8.62-6.38,24.01-14.75,34.62-11.95-5.29,8.86-24.95,22.05-34.62,25.25-.55-4.12.79-9.53,0-13.31Z"/><path class="cls-24" d="M770.44,381.64c3.44,2.28,11.89,6.91,12.91,9.71,1.25,3.39,2.11,10.61-3.55,8.88-3.24-.99-24.13-14.08-28.31-17.02-1.39-.98-9.76-3.08-4.99-6.88.96-.76,18.83,4.53,23.94,5.31Z"/><path class="cls-11" d="M767.78,339.06c.03,1.57,2.98,5.38,2.66,7.98v2.66c-2.67-.57-7.47-.04-10.64,0,4.54-6,2.52-6.57-3.83-5.18-7.45,1.63-13.67,5.6-16.28,13.02-1.6,4.57.93,13.18-3.82,13.44-1.92-14.88.29-21.76,10.62-31.92,6.68-.8,14.42.56,21.29,0Z"/><path class="cls-23" d="M1198.88,546.63c5.08,1.7,8.43,1.96,10.64,7.98-.38.46.86,3.55-.56,4.79-2.26,1.63-5.45.07-7.43.53l-21.28-10.69c-2.53-9.81,13.92-4.19,18.62-2.62Z"/><path class="cls-20" d="M477.72,418.9c16.87-1.4,40.9,3.01,58.54,5.32,16.32,2.14,32.41,8.71,50.56,5.32-11.37,28-42.19,30.04-22.45,66.35,3.57,6.58,16.26,20.72,22.45,24.12l2.66,26.61c-1.25.19-2.37,1.39-2.66,2.66-20.85-1.77-42.29-3.9-45.24,21.29-18.59-.15-37.37-5.26-55.42-9.78-29.06-7.27-66.99-18.01-93.27-31.8-14.07-7.38-24.23-17.35-37.58-24.95-4.01-16.16-8.93-21.95,4.25-36.99,18.07-20.62,90.88-45.9,118.16-48.16ZM525.63,456.14l-38.77,2.5c-1.52,11.14-4.34,40.97,5.7,47.85,5.59,3.83,22.83,4.47,27.09-.45,2.93-3.38,7.83-48.06,5.98-49.91Z"/><path class="cls-23" d="M594.81,386.96c-3.67,14.05-1.91,27.61-7.98,42.58-18.15,3.39-34.25-3.19-50.56-5.32-.82-6.88,2.8-10.74,5.32-15.97,5.91-4.66,16.02-.72,21.37-3.92,2.5-1.49,6.83-14.72,13.23-17.37,2.08-.56,11.41-2.47,13.31-2.66,1.05-.1,3.8,2.19,5.32,2.66Z"/><path class="cls-21" d="M584.17,368.34c1.58,4.53,6.69,9.25,5.32,15.97-1.9.19-11.23,2.1-13.31,2.66-.83.22-1.83-.22-2.66,0,.14-6.2-.2-12.44,0-18.63h10.64Z"/><path class="cls-16" d="M576.18,386.96c-6.4,2.65-10.73,15.88-13.23,17.37-5.35,3.19-15.46-.74-21.37,3.92,9-18.67,5.01-9.72,22.89-15.78,3.85-1.31,8.35-5.32,9.05-5.51.83-.22,1.83.22,2.66,0Z"/><path class="cls-12" d="M584.17,368.34h-10.64c.58-17.59,3.39-35.6,3.99-53.25,1.69,18.6.45,35.4,6.65,53.25Z"/><path class="cls-11" d="M1078.32,352.66c10.21-2.55,16.5,14.86,7.09,18-17.42,5.81-18.16-15.23-7.09-18Z"/><path class="cls-23" d="M1073.81,312.45c-.89,0-1.77,0-2.66,0l-5.3-45.24c9.11,9.52,5.99,32.11,7.96,45.24Z"/><path class="cls-2" d="M1459.66,344.39l15.96,39.88c-7.91,3.73-16.46,1.61-23.94,2.69-.92-15.05,3.58-29.02,7.98-42.58Z"/><path class="cls-24" d="M1390.48,389.62c-6.79-1.38-12.19-3.04-18.63-5.37l7.99-18.58c.09.31,3.62,1.13,4.76,4.41,2.23,6.46,3.04,13.31,5.89,19.54Z"/><path class="cls-5" d="M767.78,339.06c-.17-8.41,2.59-14.93,2.77-22.52.39-16.62-2.12-37.66-.11-53.37.5-3.88,2.03-8.25,5.31-3.93-.48,16.32.73,32.85-.01,49.19-.51,11.17-2.72,27.64-5.29,38.61.32-2.6-2.63-6.41-2.66-7.98Z"/><path class="cls-7" d="M1353.22,400.27c18.76,1.39,8.37,9.24,23.95,15.97-.68.09-2.94,2.46-6.45,2.77-12.4,1.1-26.2-.99-38.79-.11,0-1.77-.09-3.56,0-5.32.24-4.42-.2-8.91-.01-13.32,7.03.37,14.29-.5,21.3.02Z"/><path class="cls-6" d="M1028.57,905.88c-6.12,1.77-19.88,8.35-25.08,7.99-4.75-.33-9.37-4.78-16.08-5.42-34.77-3.31-78.47-2.02-113.18-2.58,4.17-4,9.48-2.62,14.53-2.74,46.79-1.08,94.3,1.41,139.81,2.74Z"/><path class="cls-6" d="M1201.54,905.88c1.48,8.04-4.07,5.14-9.19,5.32-44.82,1.61-97.8-3.95-142.49-5.32,4.18-3.99,9.48-2.62,14.53-2.74,45.93-1.06,91.55,2.33,137.15,2.74Z"/><path class="cls-26" d="M1321.29,903.22c.23.17-1.07,4.61,1.75,5.36,4.27,1.14,18.25-1.24,19.53-.03l-3.98,7.97h-70.52c.69-12.85,25.47-7.65,36.04-7.98,5.13-.16,10.68,2.71,9.19-5.32,2.1.12,7.35-.47,7.98,0Z"/><path class="cls-26" d="M1491.61,1006.98c-.48-4.8-1.42-20.23,6.6-18.6,8.07,1.64,3.48,20.54-6.6,18.6Z"/><path class="cls-14" d="M586.83,549.29c9.05.77,26.75,4.74,35.21,8.7,50.23,23.51,24.18,102.36,63.2,136.38,17.91,15.61,17.28-2.94,31.98-1.38,8.64.91,19,5.44,21.36,14.62.87,5.39-14.28,8.29-18.7,9.33-.84.2-1.82-.19-2.66,0h-151.68c-23.64-24.05-15.35-44.96-18.63-74.51-.75-6.75-4.93-18.51-5.32-23.95-.13-1.76.12-3.56,0-5.32-.41-6.15-2.63-14.36-2.66-15.97-.03-1.37,2.57-6.41,2.66-10.64.12-5.17-.58-11.05,0-15.97,2.95-25.19,24.39-23.06,45.24-21.29Z"/><path class="cls-14" d="M1390.48,554.61c15.54.67,19.2-2.36,21.29,15.97.47,4.1-.05,9,0,13.31.14,12.58-2.46,23.68-2.66,34.59-.06,3.55.08,7.1,0,10.64-5.15,23.66-1.84,50.58-10.43,73.51-1.66,4.42-4.54,4.84-5.54,6.33l-190.32,2.67-1.28-7.99c9.73-7.77,15.68-6.62,26.61-10.64,36.05,9.1,56.09-9.4,65.32-42.45,1.9-6.79-.02-14.17,1.2-18.76,2.59-9.72,8.64-32.78,12.79-41.76,15.68-33.93,50.04-36.84,83.01-35.41Z"/><path class="cls-20" d="M1180.25,621.14c10.32.69,73.73,5.61,76.63,8.7,3.08,3.28-3.79,8.22,12.48,9.91,8.21.85,22.68,2.8,22.65-7.97h2.66c-1.22,4.58.69,11.97-1.2,18.76-9.24,33.05-29.27,51.55-65.32,42.45-7.63-1.92-31.1-14.51-37.29-6.86-8.64,16.43-6.19,39.6-2.63,57.43-9.96,9.01-4.89,82.16-7.97,85.17-4.41.18-8.9-.25-13.32-.01-8.06.43-17.95,2.48-23.95,2.66-3.14.09-12.62-1.13-13.42-4.43l5.44-120.64c3.43-3.08,2.38-6.76,2.66-10.64.57-7.89-.4-16.03,0-23.95.76-5.16,1.83-10.67,2.66-15.97,1.27-8.05-.32-17.9,2.66-26.61,1.24-3.62,4.64-6.32,7.98-7.98,9.68.34,19.63-.64,29.27,0Z"/><path class="cls-19" d="M1150.98,621.14c-3.35,1.66-6.74,4.36-7.98,7.98l-41.51,2.39c-10.55,20.23-2.94,44.95-9.33,66.5-6.54.9-13.21.05-19.81.29-5.12.19-10.66-2.71-9.18,5.33-.86-.07-1.8-.04-2.66,0s-1.78-.06-2.66,0v-71.86c-44.28-.52-88.76.75-133.05.01-16.04-.26-33.65-2.65-50.56-2.66-12.34,0-26.91-1.16-38.84-.18-5.35.44-6.52.38-9.06,5.51-.57-1.16,1.75-5.04-1.74-5.37-12.86-1.96-25.12-2.85-38.17-2.62-2.65.05-5.35-.19-7.98,0-3.82.27-7.36.37-10.64,2.66-3.9-2.65-20.68-10.89-23.94-7.97.54,7.18,6.52,9.5,7.81,17.42,1.78,10.93-.67,22.43-2.5,33.12-4.58,2.25-9,5.92-14.12,8.5-6.64,3.34-18.35,2.41-17.81,10.13-39.39,12.34-44.75-33.84-50.56-61.21,14.75.81,9.84-8.41,7.98-18.63,138.56,12.14,277.31,10.98,416.57,10.75,20.83-.03,38.5-.86,59.76-.11Z"/><path class="cls-6" d="M924.78,631.78c44.29.73,88.77-.53,133.07-.01v71.86c-31.71,2.17-64.16,3.15-95.81,5.32-26.79-6.91-34.87-24.51-37.26-50.56-.06-.71,2.56-3.88,2.49-6.74-.17-6.65-3.71-13-2.49-19.87Z"/><path class="cls-23" d="M767.78,629.12c1.73,1.17,5.12,2.45,5.32,2.66.54.56,7.21,11.73,7.98,13.31,1.43,2.92,1.71,5.3,2.66,7.98,18.26,51.71,8.01,135.54,16.68,192.21,3.15,20.57,11.5,13.19,23.23,25.97-8.37-.95-19.58,1.8-27.4-.52-2.34-.69-18.18-15.98-19.13-18.12-3.13-7-2.6-30.28-4.7-40.54-4.88-23.92-16.57-51.05-20.62-73.84-.73-4.11-2.73-37.39-2.08-40.62,1.91-9.44,14.3-22.69,17.99-32.59-5.82.69-13.26,4.08-18.57,6.68,1.83-10.69,4.29-22.2,2.5-33.12-1.29-7.92-7.27-10.24-7.81-17.42,3.26-2.92,20.04,5.32,23.94,7.97Z"/><path class="cls-6" d="M1409.1,618.48c11.1,1.8,2.62-21.31,5.35-23.92,16.98,2.93,59.5-21.41,61.18,7.96.3,5.23-.79,8.09,0,15.97,1.48,14.75,3.52,28.23,5.32,42.58.63,5.05-.64,10.92,0,15.97-23.1-5.17-45.2,11.59-69.36,4.16-7.34-5.11.15-37.21.31-45.63.07-3.73-2.81-6.08-2.8-6.43.08-3.54-.06-7.1,0-10.64Z"/><path class="cls-16" d="M1201.54,703.63l1.28,7.99,190.32-2.67c-3.79,5.7-2.56,10.59-13.33,10.68l34.6,151.63-8.02-1.77-34.8-149.64-34.23-.15c-.15,4.73.66,13.13-6.74,13.22l-4.4-12.95-10.25-.39,7.96,165.02h-7.96s-10.66-165-10.66-165h-50.56c-6.66,20.54-3.16,43.57-5.32,63.87-2.7,25.41-5.74,51.18-7.98,77.17-.19,2.16-2.18,6.43-2.66,10.64-.68,5.96.51,12.57-.01,18.61-13.66.46-9.74-4.34-7.97-13.29.95-4.81,7.57-11.69-2.66-15.97.51-1.06,2.43-1.95,2.66-2.66,9.11-28.65,7.83-74.78,10.64-106.44.99-11.09,4.7-22.6,2.68-34.61-5.3-.14-10.67.2-15.98.01-11.47-.4-23.1.3-34.58-.01-1.47-8.3,3.15-9.44,7.97-13.29Z"/><path class="cls-4" d="M1228.15,692.99c-10.93,4.03-16.88,2.87-26.61,10.64-4.82,3.85-9.44,4.99-7.97,13.29,11.48.32,23.11-.39,34.58.01,1.9,11.71,5.37,25.59,13.31,34.59-2.81,31.67-1.53,77.8-10.64,106.44-8.43-38.06-35.1-77.01-42.58-114.43-3.56-17.82-6.01-40.99,2.63-57.43,6.19-7.65,29.66,4.94,37.29,6.86Z"/><path class="cls-16" d="M717.22,716.94c-4.44,1-13.84-2.34-15.77,4.32-.37,1.28,2.36,16.95,2.47,22.29.14,7.06-.39,14.25,0,21.29.53,9.45,5.16,18.92,5.32,21.29.11,1.58-3.53,7.88-2.72,14.49,3.4,28,11.99,55.57,13.35,83.95l-7.95.03c-3.05-2.86-2.96-54.31-13.32-61.22.01-.59-4.31-4.37-2.64-8l5.28,2.69,2.67-18.63c-2.58.21-5.48-.39-7.97-.01-1.2-6.61,4.99-12.07,5.38-17.63.27-3.8-2.74-5.97-2.72-6.32.97-19.5.72-36.26-5.69-55.52-10.21.95-41.49-3.78-47.53,2.3-5.34,5.37-2.01,25.39-2.66,34.59-.89,12.51-2.07,24.61-2.66,37.26-1.3,27.84-2,55.91-2.68,83.81-6.76,14.78-10.79,3.03-10.83-8.01-.09-23.82,4.26-53.44,5.52-78.46.63-12.53,2.16-24.79,2.66-37.26.46-11.47-.33-23.12,0-34.59h-51.89l-36.49,147.13-10.07,4.54,34.59-150.05c-.07-1.87-3.91-2.84-5.33-4.28h151.68Z"/><path class="cls-6" d="M874.22,629.12c4.02,14.44,19.45,24.85,26.61,34.59,8.95,12.19,7.65,25.9,7.98,39.92-3.76,1.92-6.87,4.43-11.4,4.51-7.02.13-43-1.54-47.09-3.24-19.41-8.08-5.35-25.47-5.87-28.67-.32-1.92-3.53-4.15-4.07-6.59-1.72-7.77.93-15.62-8.74-19.23-.15-.86.16-1.8,0-2.66-.84-4.6-1.73-5.17-2.66-7.98-.56-1.68-1.82-3.61-2.66-5.32,2.54-5.13,3.71-5.07,9.06-5.51,11.92-.98,26.5.17,38.84.18Z"/><path class="cls-13" d="M469.74,669.04c-2.66,23.51-5.22,47.16-8,70.5-4.82,40.38-10.84,80.77-16.01,121.09l-7.96-1.56,5.36-158.1,5.32.02c-.38-5.02,2.06-13.06-2.65-15.99.36-5.42,2.25-10.54,2.66-15.97.13-1.76-.13-3.57,0-5.32,7.37,2.48,12.86,7.18,21.29,5.32Z"/><path class="cls-4" d="M751.81,738.23c-5.92-1.32-5.64,3.26-7.93,6.57-6.26,9.05-11.72,16.79-18.68,25.36-5.49-5.44-14.02-5.53-21.29-5.32-.39-7.03.14-14.23,0-21.29,7.08-6.08,13.32-17.35,15.97-26.61,4.42-1.03,19.57-3.94,18.7-9.33-2.36-9.18-12.73-13.71-21.36-14.62v-2.66c-.54-7.72,11.17-6.79,17.81-10.13,5.12-2.58,9.54-6.25,14.12-8.5,5.31-2.6,12.75-5.99,18.57-6.68-3.69,9.9-16.07,23.15-17.99,32.59-.66,3.23,1.35,36.51,2.08,40.62Z"/><path class="cls-14" d="M786.41,626.46c13.05-.23,25.31.66,38.17,2.62,3.49.32,1.18,4.21,1.74,5.37.84,1.71,2.1,3.64,2.66,5.32l2.66,7.98c.16.86-.15,1.8,0,2.66,1.63,9.51,7.48,47.52,4.01,53.24-14.53,23.98-33.06-35.03-35.94-42.6l-2.66-5.32c-.29-.78.3-1.89,0-2.66-2.97-7.75-4.07-10.97-7.98-18.63-1.04-2.03-.88-5.76-2.66-7.98Z"/><path class="cls-23" d="M376.6,724.92c9.81,22.58,6.28,40.26,26.61,61.21l5.32,5.32c.85,1.54,1.08,1.83,2.66,2.66l2.66,2.66c-.44,1.34.29,3.67,0,5.32-7.13-1.53-12.71-.09-22.02-3.27s-17.4-10.1-25.88-15.36c.42-4.85-13.43-52.72-15.97-55.88l17.31-15.95c1.2,4.95,7.67,9.54,9.3,13.29Z"/><path class="cls-6" d="M1135.01,706.29c-13.36-5.48-20.43-4.75-34.59-2.66v-49.23c0-9.3,17.73-23.41,28.2-14.89,7.7,6.27-2.23,19.25,11.71,16.22-.83,5.3-1.9,10.81-2.66,15.97-.9,6.11-7.19,17.54,0,23.95-.28,3.88.77,7.56-2.66,10.64Z"/><path class="cls-21" d="M645.37,722.26c7.44,1.38,26.66,13.65,30.79,18.44,7.59,8.83,9.25,31.1,22.43,34.78-.02.34,2.99,2.51,2.72,6.32-.4,5.57-6.59,11.03-5.38,17.63-.42.06-7.63,2.44-7.98,2.66-5.56-11.58-23.78-.36-31.93-7.98.55-.07,2.1-2.15,4.24-2.45,4.99-.69,19.08,2.52,17.01-4.15-3.35-10.79-20.49-33.68-34.56-30.65.65-9.2-2.68-29.22,2.66-34.59Z"/><path class="cls-24" d="M541.59,586.55c-.1,4.23-2.69,9.28-2.66,10.64-3.99-.63-9.81.9-13.31,0-3.78-.97-15.09-8.29-20.79-9.81-3.85-1.03-26.06-4.6-27.1-3.51,1.97,6.94-1.87,13.2-2.66,18.64-7.15-3.82-5.4-20.17-8.57-23.36-1.86-1.87-9.47-1.74-12.72-3.25-24.29-11.3-79.88-30.16-92.88-52.39-4.02-6.87-.09-8.36-.26-8.82,47.97,45.35,118.75,56.85,180.95,71.85Z"/><path class="cls-23" d="M924.78,658.39c2.39,26.05,10.47,43.65,37.26,50.56-.35.02-2.7,2.39-6.4,2.8-14.59,1.6-31.89-1.44-46.84-.13-.09-2.65.08-5.33.02-7.99-.34-14.01.97-27.73-7.98-39.92,5.47-7.47,15.75-5.14,23.95-5.32Z"/><path class="cls-23" d="M1270.73,860.64c-8.47-3.92-19.36,2.08-29.27,0,2.24-25.99,5.28-51.76,7.98-77.17,4.64,18.44,16.52,40.04,20.67,57.83,1.53,6.57-.01,13.06.62,19.34Z"/><path class="cls-7" d="M1135.01,852.65c.35,0,3.06,2.75,6.45,2.76,9.39.02,18.79-.18,28.15-.1-.27,6.01,1.94,11.3-2.66,15.97h-74.51c-6.12-2.21-1.59-5.59,1.85-7.47,3.71-2.03,37.08-11.17,40.73-11.16Z"/><path class="cls-21" d="M451.11,607.83l5.32-.02v10.68c5.76.02,13.78-1.73,15.97,5.31-1.55,14.07-1.02,30.71-2.66,45.24-8.43,1.86-13.92-2.84-21.29-5.32,1.43-18.75,1.89-37.21,2.66-55.88Z"/><path class="cls-23" d="M695.93,799.43c2.49-.38,5.39.22,7.97.01l-2.67,18.63-5.28-2.69c-1.67,3.63,2.65,7.42,2.64,8-.29,11.57-9.14,21.7-.01,37.24-15.64-5.31-27.13-24.29-23.38-40.66.8-3.5,10.41-16.42,12.75-17.87.36-.22,7.57-2.6,7.98-2.66Z"/><path class="cls-11" d="M642.71,756.85c14.07-3.03,31.21,19.87,34.56,30.65,2.07,6.67-12.02,3.46-17.01,4.15-2.14.3-3.69,2.38-4.24,2.45-5.05.61-10.79-.42-15.97,0,.59-12.64,1.77-24.75,2.66-37.26Z"/><path class="cls-19" d="M413.86,802.09c6.52,1.4,9.07,4.29,13.28,9.38-14.85,22.39-41.24-8.37-54.58-12-6.99-1.9-2.66,6.79-3.95,7.95h-7.96c-3.59-9.48,4.74-17.37,5.31-23.95,8.48,5.26,16.21,12.06,25.88,15.36s14.89,1.73,22.02,3.27Z"/><path class="cls-23" d="M435.14,669.04c-.4,6.19-5.5,10.6-10.64,13.31-6.94,3.65-35.03,12.7-38.8,18.58l6.87,16.01c-.27,1.36.78,3.75-.39,4.92-1.55,1.16-3.62.08-4.94.4l-15.77-19.58c.84-4.95,30.81-26.16,37.06-28.32,3.66-1.27,14.01-1.11,19.9-3.45,1.65-.66,1.18-4.77,3.02-4.71,2.06.06,3.32,2.82,3.69,2.84Z"/><path class="cls-19" d="M424.5,682.34l.02,5.26,18.61,2.73c-.18,2.64.18,5.34,0,7.98-6.77-.58-10.57,4.81-17.24,5.53-7.65.82-17.44-3.69-20.93-3.06-2.08.37-2.34,4.81-4.65,6.61-6.88,5.35-5.12-3.5-7.74,9.55l-6.87-16.01c3.77-5.88,31.86-14.93,38.8-18.58Z"/><path class="cls-18" d="M546.91,642.43c-11.97,1.97-14.87,17.33-21.28,25.49-9.93,1.94-12.96-3.96-10.59-12.96.62-2.36,5.56-1.84,6.73-7,.91-4.02-1.69-8.27.38-12.75,2.59-5.59,14.63-11.84,19.43-16.72.39,5.44,4.57,17.2,5.32,23.95Z"/><path class="cls-9" d="M453.77,575.9c3.24,1.51,10.85,1.38,12.72,3.25,3.18,3.19,1.43,19.54,8.57,23.36-.96,6.55-1.98,15.1-2.66,21.29-2.19-7.04-10.2-5.3-15.98-5.31v-10.68s-5.31.02-5.31.02c.45-10.92,2.7-21.07,2.66-31.93Z"/><path class="cls-23" d="M1166.94,828.7c.3,1.65-.45,4.02,0,5.32l2.66,5.32c.49,4.76.22,11.05,0,15.97-9.36-.09-18.76.11-28.15.1-3.38,0-6.09-2.76-6.45-2.76,4.7-6.13,7.94-13.43,7.98-21.29,6-.18,15.89-2.23,23.95-2.66Z"/><path class="cls-11" d="M632.06,791.45c-32.1-.74-25.01-31.42,2.66-37.26-.5,12.46-2.03,24.72-2.66,37.26Z"/><path class="cls-9" d="M1103.08,730.24c-13.95-6.12-27.77-7.65-42.58-2.66-3.39-10.54-1.06-12.98,0-23.95.86-.04,1.8-.07,2.66,0,16.41,1.37,9.64,5.23,16.17,9.11,10.72,6.37,18.61,2.88,23.75,17.5Z"/><path class="cls-1" d="M1103.08,730.24c1.22,3.47,1.29,9.34,2.67,13.29-10.68,5.56-12.02-6.58-21.15-9.45-8.37-2.63-16.57.04-24.1-1.19v-2.66c-.19-.84.26-1.87,0-2.66,14.81-4.99,28.63-3.46,42.58,2.66Z"/><path class="cls-7" d="M1270.73,860.64c.15,1.53,4.84,6.2,2.67,10.63h-34.6c.48-4.2,2.48-8.48,2.66-10.63,9.91,2.08,20.81-3.92,29.27,0Z"/><path class="cls-23" d="M725.2,770.16c-.34.42.56,3.03-.74,4.51-2.78,3.19-11.64,7.52-15.22,11.45-.17-2.36-4.79-11.84-5.32-21.29,7.26-.21,15.8-.12,21.29,5.32Z"/><path class="cls-12" d="M538.93,597.19c.03,1.61,2.25,9.82,2.66,15.97-9.08,1.88-22.62-6.6-15.97-15.97,3.5.9,9.32-.63,13.31,0Z"/><path class="cls-2" d="M1166.94,871.28c-3.52,3.57-4.78,2.46-9.08,2.82-15.87,1.31-40.17.87-56.34,0-3.23-.18-7.52.82-9.09-2.81h74.51Z"/><path class="cls-2" d="M797.05,653.07h-13.31c-.95-2.69-1.23-5.06-2.66-7.98l5.3,2.66.54-11.53,2.15-1.78c3.92,7.66,5.02,10.88,7.98,18.63Z"/><path class="cls-21" d="M445.79,685.01c4.71,2.93,2.27,10.96,2.65,15.99l-5.32-.02c.06-.88-.06-1.78,0-2.66.18-2.64-.18-5.34,0-7.98s2.63-4.83,2.66-5.32Z"/><path class="cls-4" d="M1230.81,876.6c-2.04-5.85-5.31-10.49-2.66-15.97,10.23,4.28,3.61,11.16,2.66,15.97Z"/><path class="cls-19" d="M403.21,786.13c2.12,2.19.51-3.42,5.32,5.32l-5.32-5.32Z"/><path class="cls-2" d="M799.71,661.06c-.45-1.18-1.74-2.84-2.66-5.32l2.66,5.32Z"/><path class="cls-7" d="M1169.61,839.35l-2.66-5.32c.1.28,2.2.84,2.66,5.32Z"/><path class="cls-19" d="M411.19,794.11c.97.51,3.7-.39,5.33.03.78,2.11-2.52,2.2-2.66,2.63l-2.66-2.66Z"/><path class="cls-9" d="M1060.5,732.91c-1.15-.19-2.15.23-2.62-1.34l2.62-1.32v2.66Z"/><path class="cls-8" d="M264.83,613.16c16.38-1.82,25.45-21.44,42.6-19.96-12.55,11.35-25.12,22.96-42.6,25.28-.06-1.68.38-4.18,0-5.32Z"/><polygon class="cls-8" points="352.64 700.99 351.33 708.94 347.35 704.92 347.34 700.99 352.64 700.99"/><path class="cls-8" d="M336.66,677.03c-1.62,8.47,10.05,13.29,10.65,21.26l-15.92-17.33,5.27-3.93Z"/><polygon class="cls-8" points="294.08 623.79 291.47 623.79 290.09 615.87 294.08 619.85 294.08 623.79"/><path class="cls-9" d="M192.98,416.24c6.59.4,11.49,5.99,20.03,5.6,8.05-.38,7.88-4.93,9.25-5.6.46-.22,1.78-.02,2.66,0,17.05.36,31.76,51.39,31.93,66.53-11.5,6.2-24.3,18.37-37.26,23.95-5.31-3.08-6.4,2.24-13.37-9.26-12.41-20.46-17.72-49.04-31.45-69.74-.68-7.21,12.48-11.83,18.21-11.48Z"/><path class="cls-23" d="M238.22,333.74c.05.43,4.01,2.92,4.65,7.21,2.61,17.44,5.77,31.79-3.23,48.76l-17.4,2.56.02,23.96c-1.37.66-1.19,5.22-9.25,5.6-8.53.4-13.44-5.2-20.03-5.6-1.2-11.1,5.72-28.23,4.58-38.28-.81-7.09-11.91-11.95-9.9-18.88,2.29-7.9,13.88-.71,18.57-2.61,6.04-2.45,20.71-22.57,31.99-22.72Z"/><path class="cls-23" d="M312.73,466.8c-19.17,20.28-7.71,28.07,13.31,13.31-.73,5.63-4.3,11.87-7.98,15.97l-5.32,2.66c-.96.82-1.75,1.96-2.66,2.66-5.68,4.42-12.68,7.3-17.29,13.26l-10.62-21.22c-10.07,5.29-18.95,11.8-27.97,18.6-8.24,6.22-15.45,8.98-21.29,18.63-7.71-1.71-10.72-22.45-13.31-23.95,12.96-5.58,25.76-17.75,37.26-23.95,3.02-1.63,20.13-10.35,21.29-10.64,9.19-2.31,22.97-1.2,34.59-5.32Z"/><path class="cls-19" d="M310.07,501.39c-10.15,12.61-24.26,40.06-43.4,34.15-6.7-2.07-4.77-11.44-12.48-10.2v-13.31c9.01-6.81,17.9-13.31,27.97-18.6l10.62,21.22c4.62-5.96,11.62-8.84,17.29-13.26Z"/><path class="cls-6" d="M1632.64,501.39l-10.64,8.02c-2.24,3.02,5.34,10.23,8.17,11.75,17.5,9.36,31.38,7.59,50.37,9.51v10.64c-14.56,1.2-35.92-.7-47.9,7.98-4.61.09-22.53,2.62-26.74,3.86-5.81,1.71-11.56,7.98-15.84,12.11-30.06,29.07-21.11,58.6-23.95,95.8h-2.66c-4.32,1.89-2.15,7.35-2.66,10.64-.68,4.4-2.01,7.37-2.66,10.64h-55.88c-.49-7.91.43-16.03,0-23.95-.71-13.2-1.98-26.55-2.66-39.92-.64-12.53-1.74-24.78-2.66-37.26,18.84-15.66,24.75-11.64,45.72-19.48,13.2-4.93,40.15-17.76,48.98-28.25,4.36-5.17,2.61-8.62,3.76-10.82,2.26-4.32,11.62-13.08,5.32-15.97,3.64-4.17,7.35-10.31,8.03-15.97,8.98,5.68,13.52,8.51,23.9,10.65Z"/><path class="cls-23" d="M1590.06,565.26c10.57,1.53,10.46,17.14,15.42,25.83,1.72,3.01,15.79,23.41,17.07,24.15,4.22,2.42,17.13-.33,23.39.59v2.66c-9.6,0-19.34-.42-28.92.35-8.7,28.77-14.81,58.22-21.64,87.47-3.6,15.39-4.04,30.35-6.79,42.88-4.04,18.44-30.3,39.94-50.01,36.64l-4.39-6.3c8.13-7.25,13.32-13.24,18.61-22.67,13.69-24.4,13.46-58.54,10.64-85.15-.18-1.74.13-3.57,0-5.32,2.59-.72,2.49-3.07,2.66-5.32,2.84-37.2-6.12-66.73,23.95-95.8Z"/><path class="cls-4" d="M1645.94,618.48c.89,0,1.77,0,2.66,0,1.77,0,3.55,0,5.32,0-9.74,32.47,5.44,87.7-5.32,117.09-.37,1.02.83,3.45-.49,4.81-1.24,1.26-3.68.15-4.83.52h-2.66c-3.24-1.15-7.71-1.29-10.64-2.66-15-6.99-24-20.06-34.59-31.93,6.84-29.25,12.95-58.7,21.64-87.47,9.58-.77,19.31-.35,28.92-.35Z"/><path class="cls-7" d="M1680.54,541.31v10.64c-11.76-1.1-37.33-2.88-47.9-2.66,11.98-8.69,33.34-6.78,47.9-7.98Z"/><path class="cls-5" d="M1648.6,618.48c-.89,0-1.77,0-2.66,0v-2.66c1.25.18,2.37,1.38,2.66,2.66Z"/><path class="cls-16" d="M1640.62,740.89v2.66c-6.59,20.5-7.83,46.56-13.31,66.53-1.08,3.95-9.2,21.04-11.97,21.24-7.69-4.86-1.88-9.01-1.33-13.25,3.47-26.94,11.32-53.13,15.97-79.83,2.94,1.37,7.41,1.51,10.64,2.66Z"/><path class="cls-5" d="M1640.62,743.55v-2.66h2.66c-.71.22-1.65,2.1-2.66,2.66Z"/><path class="cls-7" d="M1552.8,756.85c-1.55-25.5.42-49.66,5.32-74.51.65-3.28,1.98-6.24,2.66-10.64h2.66c2.81,26.61,3.04,60.75-10.64,85.15Z"/><path class="cls-7" d="M1589.75,788.51c-.33.38-8.41,2.23-9.7,2.25-17.36.25.29-11.4,6.02-17.89,4.48,2.24,5.57,13.46,3.68,15.64Z"/><path class="cls-21" d="M1499.58,618.48c.68,13.36,1.95,26.71,2.66,39.92l-21.29,2.66c-1.8-14.35-3.84-27.82-5.32-42.58h23.95Z"/><path class="cls-26" d="M812.38,941.12c4.58,4.59,5.75,14.32,18.04,17.92,11.62,22.47-43.47,17.97-48.71,12.73-4.73-4.74-4.7-25.97,0-30.67,4.74-4.74,25.94-4.71,30.67.02Z"/><path class="cls-23" d="M1675.21,339.06c21.08,2.04,25.7,28.9,47.91,23.96,2.13,7.96-5.31,12.67-5.27,19.58.05,9.72,10.09,27.22,10.58,33.63,1.09,14.13-32.37,35.96-36.86,22.22-2.01-6.16-.07-19.81-.4-27.54-.77-18.16-5.39-7.59-14.81-18.47-13.14-15.18-4.53-37.01-1.16-53.38Z"/><path class="cls-23" d="M1576.75,402.93c9.49,4.41,26.13,33.92,34.65,43.96,1.66,1.96,7.46,8.8,7.93,9.26-5.4,8-14.09,12.89-13.34,23.96-9.86-2.05-5.72-5.43-7.08-7.91-1.03-1.86-3.27-2.26-3.53-2.75-8.13-15.24-11.55-38.19-29.54-46.29-4.69-2.11-16-3.22-17.77-4.96-1.36-1.33-.24-4.23-.59-4.63,12.06,2.03,12.1-12.37,13.35-13.32.64-.49,15.19,2.34,15.92,2.68Z"/><path class="cls-25" d="M1547.48,413.57c-11.99-13.89-18.54-31.87-27.97-47.84l41.37,6.5,15.87,30.7c-.73-.34-15.28-3.17-15.92-2.68-1.25.96-1.3,15.35-13.35,13.32Z"/><path class="cls-21" d="M541.59,570.58c-.58,4.91.12,10.8,0,15.97-62.2-15-132.99-26.5-180.95-71.85-1.26-3.39-4.03-5.44-5.32-10.64,13.35,7.6,23.52,17.57,37.58,24.95,26.28,13.79,64.21,24.53,93.27,31.8,18.05,4.51,36.83,9.63,55.42,9.78Z"/><path class="cls-19" d="M224.92,416.24c-1.96-8.23,7.5-5.89,11.39-4.76,31.62,9.19,28.36,36.78,41.83,60.64-1.15.29-18.26,9.01-21.29,10.64-.18-15.13-14.88-66.17-31.93-66.53Z"/><path class="cls-1" d="M360.63,437.52c-7.93,11.22-23.45,34.75-34.59,42.58-21.01,14.76-32.47,6.98-13.31-13.31,2.52-.89,16.11-7.8,18.52-9.43,6.32-4.26,15.46-18.16,21.4-19.85,2.07-.59,5.54.4,7.98,0Z"/><path class="cls-16" d="M363.29,405.59l-13.26-1.29,6.62-14.67,2.65,5.35c4.08-13.43,14.99,1.03,16.64,7.28,4.94,18.61-6.6,22.94-15.31,35.26-2.44.4-5.91-.59-7.98,0l-.04-18.61c3.15-.19,8.4-.7,10.68-2.68,4.36-3.79,2.55-8.17,2.63-13.3l-2.63,2.66Z"/><path class="cls-22" d="M448.45,669.04c-.41,5.43-2.3,10.55-2.66,15.97-.03.49-2.49,2.76-2.66,5.32l-18.61-2.73-.02-5.26c5.14-2.71,10.25-7.12,10.64-13.31,4.4.27,8.89-.18,13.31,0Z"/><path class="cls-24" d="M363.29,416.24v-10.64l2.63-2.66c-.08,5.13,1.73,9.52-2.63,13.3Z"/><path class="cls-19" d="M318.06,496.07c-2.56,2.85-4.89,2.29-5.32,2.66l5.32-2.66Z"/><path class="cls-23" d="M1675.21,509.37c11.11.38,24.69-4.77,36.87-3.07l18.98-44.81c-2.18,14.34-5.45,33.85-15.9,43.89,9.19,7.21,12.46,13.23,10.59,25.3l22.25.04,4.34-5.37c1.06,5.87-2.46,6.26-6.66,7.92-13.56,5.36-49.14-1-65.16-2.61-18.99-1.91-32.86-.15-50.37-9.51-2.83-1.51-10.41-8.73-8.17-11.75l10.64-8.02c3.86.8,9.49-.82,13.31,0,7.73,1.66,20.91,7.7,29.27,7.98Z"/><path class="cls-21" d="M1595.38,522.68c-52.98,38.46-120.02,51.09-183.62,61.21-.05-4.31.47-9.2,0-13.31,49.43-8.3,155.43-25.49,188.94-63.87,6.3,2.88-3.06,11.64-5.32,15.97Z"/><path class="cls-12" d="M1470.32,472.1c-.26,27.32,5.51,54.88-31.95,47.93l-2.67-47.93h34.62ZM1459.4,488.36c-1.85-1.27-6.19-.2-8.71.04-6.75,2.1-5.86,19.25-.3,20.96,11.03,3,14.37-17.34,9.02-21Z"/><path class="cls-16" d="M1390.48,549.29c-.4,1.43.27,3.64,0,5.32-32.96-1.43-67.33,1.49-83.01,35.41-4.15,8.98-10.21,32.04-12.79,41.76h-2.66c.17-59.27,40.41-90.66,98.46-82.49Z"/><path class="cls-5" d="M1675.21,509.37c-8.36-.29-21.54-6.32-29.27-7.98,2.33-7.86,10.98-12.8,15.54-20.39,3.2-5.33,3.09-14.45,8.39-16.86-.42,15.25-.36,30.82,5.35,45.23Z"/><path class="cls-1" d="M1257.42,578.56h-2.66c10.59-18.83,16.71-44.98,31.91-61.2.87,4.54-1.42,7.77-2.99,11.62-5.02,12.33-24.21,40.93-26.26,49.58Z"/><path class="cls-16" d="M1257.42,602.51c-7.47-.96-14.2.9-21.29,2.66,4.26-8.63,12.96-16.53,18.63-26.61h2.66c-1.37,5.78.4,16.93,0,23.95Z"/><path class="cls-16" d="M666.66,629.12c5.81,27.36,11.17,73.55,50.56,61.21v2.66c-14.7-1.56-14.07,16.99-31.98,1.38-39.02-34.02-12.98-112.87-63.2-136.38-8.46-3.96-26.16-7.93-35.21-8.7.29-1.28,1.41-2.47,2.66-2.66,20-3.01,47.12,8.11,59.93,23.9,12.48,15.39,13.21,39.62,17.24,58.6Z"/><path class="cls-5" d="M525.63,456.14c1.85,1.85-3.05,46.53-5.98,49.91-4.26,4.92-21.51,4.28-27.09.45-10.04-6.88-7.22-36.72-5.7-47.85l38.77-2.5ZM511.93,472.5h-9.88c-4.35,7.79-3.14,15.03,3.64,20.9,9.68-2.16,10.62-13.6,6.24-20.9Z"/><path class="cls-15" d="M717.22,716.94c.84-.19,1.82.2,2.66,0-2.65,9.26-8.88,20.53-15.97,26.61-.11-5.35-2.84-21.01-2.47-22.29,1.94-6.66,11.33-3.32,15.77-4.32Z"/><path class="cls-19" d="M1496.92,581.22c-.81.67-4.58.38-6.7,2.52-5.62,5.67-7.5,14.51-14.59,18.77-1.68-29.37-44.2-5.03-61.18-7.96-2.73,2.62,5.75,25.72-5.35,23.92.2-10.91,2.8-22.01,2.66-34.59,63.6-10.12,130.64-22.75,183.62-61.21-1.15,2.21.6,5.65-3.76,10.82-8.83,10.48-35.78,23.31-48.98,28.25-20.97,7.84-26.88,3.82-45.72,19.48Z"/><path class="cls-22" d="M1137.67,695.65c-7.19-6.41-.9-17.84,0-23.95-.4,7.92.57,16.06,0,23.95Z"/><path class="cls-7" d="M924.78,631.78c-1.22,6.86,2.32,13.22,2.49,19.87.07,2.87-2.56,6.04-2.49,6.74-8.2.18-18.48-2.15-23.95,5.32-7.16-9.74-22.59-20.16-26.61-34.59,16.91.01,34.52,2.4,50.56,2.66Z"/><path class="cls-22" d="M786.41,626.46c1.78,2.22,1.62,5.95,2.66,7.98l-2.15,1.78-.54,11.53-5.3-2.66c-.77-1.58-7.45-12.74-7.98-13.31h5.32s0-5.32,0-5.32c2.63-.19,5.34.05,7.98,0Z"/><path class="cls-2" d="M778.42,626.46v5.32s-5.32,0-5.32,0c-.21-.22-3.59-1.49-5.32-2.66,3.28-2.29,6.83-2.39,10.64-2.66Z"/><path class="cls-9" d="M1496.92,581.22c.92,12.47,2.02,24.73,2.66,37.26h-23.95c-.79-7.87.3-10.73,0-15.97,7.09-4.26,8.97-13.1,14.59-18.77,2.12-2.14,5.89-1.84,6.7-2.52Z"/><path class="cls-17" d="M1228.15,716.94c5.31.19,10.68-.16,15.98-.01,2.03,12.01-1.69,23.52-2.68,34.61-7.94-9.01-11.41-22.89-13.31-34.59Z"/><path class="cls-9" d="M645.37,722.26c6.04-6.08,37.32-1.35,47.53-2.3,6.41,19.26,6.66,36.02,5.69,55.52-13.19-3.68-14.84-25.95-22.43-34.78-4.12-4.79-23.35-17.06-30.79-18.44Z"/><path class="cls-22" d="M831.65,647.75l-2.66-7.98c.93,2.81,1.82,3.38,2.66,7.98Z"/><path class="cls-22" d="M1563.45,666.38c.13,1.75-.18,3.58,0,5.32h-2.66c.51-3.3-1.65-8.75,2.66-10.64.09,1.76-.13,3.57,0,5.32Z"/><path class="cls-7" d="M1563.45,666.38c-.13-1.76.09-3.56,0-5.32h2.66c-.17,2.25-.07,4.61-2.66,5.32Z"/><path class="cls-16" d="M1459.4,488.36c5.36,3.67,2.02,24-9.02,21-5.55-1.72-6.45-18.87.3-20.96,2.53-.24,6.86-1.31,8.71-.04Z"/><path class="cls-16" d="M511.93,472.5c4.39,7.29,3.45,18.73-6.24,20.9-6.78-5.86-8-13.11-3.64-20.9h9.88Z"/></g></svg>
